<svg id="Layer_1" data-name="Layer 1" xmlns="http://www.w3.org/2000/svg" viewBox="0 0 550 500" width="400" height="400"><defs><style>.cls-1{fill:#4cc9f0;}.cls-2{fill:#680000;opacity:0.26;}.cls-3{fill:#3a0ca3;}.cls-4{fill:#ffffff;}.cls-5{fill:#4361ee;}.cls-6{fill:#480ca8;}.cls-7{fill:#480ca8;}.cls-8{fill:#480ca8;}</style></defs><rect class="cls-1" x="145.09" y="99.47" width="78.37" height="103.12" transform="translate(-15.8 21.65) rotate(-6.45)"></rect><rect class="cls-2" x="45.42" y="425.49" width="458.67" height="6.36"></rect><path class="cls-3" d="M352.42,170.5l-.74-1.3a18.65,18.65,0,0,0,8.19-12c1.28-7.25-1.94-15.52-9.57-24.6l1.15-1c7.94,9.44,11.27,18.14,9.89,25.84A19.81,19.81,0,0,1,352.42,170.5Z"></path><path class="cls-3" d="M504.58,426.24H45.42a.75.75,0,0,1,0-1.5H504.58a.75.75,0,0,1,0,1.5Z"></path><path class="cls-4" d="M107.81,247.12c1-2,3.32-2.5,8.89,4.21"></path><path class="cls-3" d="M116.7,252.08a.76.76,0,0,1-.58-.27c-4-4.81-5.86-5.36-6.64-5.26-.26,0-.64.16-1,.89a.75.75,0,0,1-1.36-.64,2.75,2.75,0,0,1,2.17-1.74c1.91-.25,4.53,1.65,8,5.79a.75.75,0,0,1-.1,1.05A.74.74,0,0,1,116.7,252.08Z"></path><path class="cls-4" d="M99.35,244.4c.38-1.58,1.15-3,2.67-3.32,0,0,3.37-.89,8.3,11.57"></path><path class="cls-3" d="M110.32,253.4a.75.75,0,0,1-.7-.48c-4.4-11.14-7.38-11.12-7.4-11.11-1,.22-1.75,1.15-2.14,2.76a.75.75,0,1,1-1.46-.35c.67-2.77,2.14-3.63,3.25-3.87.63-.17,4.22-.43,9.15,12a.76.76,0,0,1-.42,1A.92.92,0,0,1,110.32,253.4Z"></path><path class="cls-4" d="M149.49,328.46c7.61,22.05,16.52,43.62,27.8,64.07,1.78,3.22,3.69,6.5,6.59,8.77,4.44,3.45,10.62,4,16.09,2.69,25.37-5.92,46.95-31.62,51.29-56.71l-41.16-25.4-15.88,26.85c-11.59-23.52-32.49-84.05-41.2-91.92a13,13,0,0,0-10.11-4.06"></path><path class="cls-3" d="M194.5,405.39a17.9,17.9,0,0,1-11.08-3.5c-2.95-2.3-4.89-5.57-6.78-9-10.26-18.58-19.37-39.58-27.86-64.19a.74.74,0,0,1,.46-.95.75.75,0,0,1,1,.46c8.46,24.53,17.54,45.45,27.75,64,1.88,3.42,3.67,6.42,6.39,8.54,3.87,3,9.51,3.95,15.46,2.56,23.82-5.56,46-29.92,50.63-55.61l-40.07-24.73-15.5,26.19a.75.75,0,0,1-1.32-.05c-4.45-9-10.17-23.26-16.22-38.32-9.62-23.91-19.56-48.63-24.8-53.37A12.42,12.42,0,0,0,143,253.5a.76.76,0,0,1-.79-.71.74.74,0,0,1,.71-.79,13.64,13.64,0,0,1,10.69,4.29c5.51,5,15.49,29.88,25.15,53.89,5.77,14.36,11.24,27.95,15.57,37l15.18-25.64a.74.74,0,0,1,1-.26l41.16,25.41a.74.74,0,0,1,.34.76c-4.57,26.42-27.34,51.59-51.86,57.31A24.72,24.72,0,0,1,194.5,405.39Z"></path><path class="cls-4" d="M149.49,328.46s-18.85-58.88-25.78-59.65"></path><path class="cls-3" d="M149.49,329.21a.77.77,0,0,1-.72-.52c-7.23-22.59-20.45-58.61-25.14-59.13a.75.75,0,1,1,.17-1.49c1.3.14,4.78.53,16.1,30.59,5.52,14.66,10.26,29.42,10.3,29.57a.75.75,0,0,1-.48.94A.66.66,0,0,1,149.49,329.21Z"></path><polygon class="cls-4" points="284.23 209.07 284.56 261.7 327.07 261.7 326.75 209.07 284.23 209.07"></polygon><path class="cls-3" d="M327.83,262.45h-44l-.34-54.13h44ZM285.3,261h41L326,209.82H285Z"></path><path class="cls-2" d="M284.58,219.53v11.41c5.74,6.1,17.61,7.95,42.17-10.53l.66-.49-.66.38C323.07,222.34,304.44,231.5,284.58,219.53Z"></path><path class="cls-4" d="M304,226.45h0a42.15,42.15,0,0,0,42.16-42.15V149.39a39,39,0,0,0-39-39h-6.27c-21.55,0-41.05,15.84-40.41,40.22l1.39,33.72A42.15,42.15,0,0,0,304,226.45Z"></path><path class="cls-3" d="M304,227.2a43,43,0,0,1-42.9-42.9l-1.39-33.69c-.29-11.12,3.46-21,10.83-28.57a42.42,42.42,0,0,1,30.33-12.43h6.27a39.82,39.82,0,0,1,39.77,39.78V184.3A43,43,0,0,1,304,227.2Zm-3.13-116.09a40.89,40.89,0,0,0-29.25,12,37,37,0,0,0-10.41,27.47l1.39,33.7a41.41,41.41,0,1,0,82.81,0V149.39a38.32,38.32,0,0,0-38.27-38.28Z"></path><path class="cls-5" d="M422.24,355c-18.05,4-39.32,3.84-47.12,5-1.75.26.61,14.45.65,16.22l1.08,15.1v.1a3.74,3.74,0,0,1-3.76,3.85H246.72A3.75,3.75,0,0,1,243,391.5v-.2l.27-26.12c.12-2.27-1-4.53-2.23-6.44-8.24-12.58-28.36-14.66-39.72-21.52-3.08-1.87-5.47-3.26-6.76-4a3.73,3.73,0,0,1-1.8-3.76,1.07,1.07,0,0,1,0-.25l12.86-32.36q1.53-3.85,3.34-7.47a75.24,75.24,0,0,1,7.95-12.75,54.28,54.28,0,0,1,27.54-19.33l38-11.45a3.77,3.77,0,0,1,3.24.53c21,15.09,35.77,4.55,40.29.4a3.81,3.81,0,0,1,3.59-.86l40.22,11.46a53.85,53.85,0,0,1,36.74,36.17l17.29,57.19C424.28,352.34,423.87,354.63,422.24,355Z"></path><path class="cls-3" d="M373.09,396H246.72a4.51,4.51,0,0,1-4.5-4.5v-.2l.27-26.13c.09-1.75-.6-3.7-2.11-6-5.22-8-15.33-11.62-25.11-15.14-5.31-1.91-10.33-3.72-14.37-6.15-2.82-1.72-5.07-3-6.41-3.81l-.34-.19a4.48,4.48,0,0,1-2.17-4.47,1.34,1.34,0,0,1,.06-.4l12.89-32.43c1-2.64,2.18-5.18,3.36-7.53a75.54,75.54,0,0,1,8-12.87,55,55,0,0,1,27.91-19.58l38-11.46a4.53,4.53,0,0,1,3.89.64c20.17,14.5,34.23,5.15,39.34.46a4.53,4.53,0,0,1,4.31-1L370,256.65a54.36,54.36,0,0,1,37.26,36.68l17.29,57.18a5.08,5.08,0,0,1-.35,3.88,2.69,2.69,0,0,1-1.76,1.33h0c-12.16,2.67-25.79,3.49-35.74,4.09-4.66.28-8.7.53-11.25.89-.62,1.38.38,9.3.76,12.34.2,1.55.34,2.67.35,3.14l1.08,15.22a4.49,4.49,0,0,1-4.51,4.6ZM283.51,246.43a3.22,3.22,0,0,0-.87.13l-38,11.45a53.6,53.6,0,0,0-27.17,19.07,74.24,74.24,0,0,0-7.87,12.62c-1.16,2.32-2.28,4.81-3.31,7.41l-12.86,32.37a3.06,3.06,0,0,0,1.45,3.08l.33.2c1.35.78,3.61,2.09,6.44,3.82,3.91,2.35,8.86,4.14,14.1,6,10,3.61,20.36,7.33,25.85,15.73,1.7,2.59,2.47,4.84,2.35,6.89l-.26,26.28a3,3,0,0,0,3,3H373.09a3,3,0,0,0,2.17-.91,3,3,0,0,0,.84-2.17v-.12L375,376.25c0-.42-.16-1.63-.34-3-1.36-10.73-1.29-13.74.33-14,2.6-.39,6.55-.63,11.56-.93,9.9-.6,23.46-1.41,35.51-4.06h0a1.17,1.17,0,0,0,.79-.62,3.7,3.7,0,0,0,.21-2.69l-17.3-57.18a52.87,52.87,0,0,0-36.23-35.67l-40.21-11.46a3,3,0,0,0-2.89.7c-4.19,3.85-19.57,15.21-41.23-.35A2.91,2.91,0,0,0,283.51,246.43Z"></path><path class="cls-2" d="M300.54,254.13,300,254l.38.21Z"></path><path class="cls-2" d="M320.82,250.57l37.61,11.35c18.88,5.68,32.43,22.67,39.36,41.07l17.73,55.9c3.08-1.87,5.47-3.26,6.76-4a3.73,3.73,0,0,0,1.8-3.76l-16.79-54.7a64.23,64.23,0,0,0-2.91-7.51,57,57,0,0,0-36.14-31.24l-38-11.47a3.79,3.79,0,0,0-3.25.53A49.33,49.33,0,0,1,320.82,250.57Z"></path><path class="cls-2" d="M292.52,251a37.33,37.33,0,0,0,7.44,3c-1.25-.76-2.54-1.6-3.85-2.54a3.67,3.67,0,0,0-3.24-.52Z"></path><path class="cls-6" d="M284.56,192.82a15.05,15.05,0,1,0,30.1,0Z"></path><path class="cls-3" d="M299.61,208.62a15.81,15.81,0,0,1-15.8-15.8v-.75h31.6v.75a15.54,15.54,0,0,1-.73,4.74A15.74,15.74,0,0,1,299.61,208.62Zm-14.28-15.05a14.3,14.3,0,0,0,27.92,3.54,13.8,13.8,0,0,0,.64-3.54Z"></path><path class="cls-4" d="M284.56,192.82a14.93,14.93,0,0,0,.69,4.51H314a14.93,14.93,0,0,0,.69-4.51Z"></path><path class="cls-3" d="M314.52,198.08H284.7l-.16-.52a15.85,15.85,0,0,1-.73-4.74v-.75h31.6v.75a15.54,15.54,0,0,1-.73,4.74Zm-28.71-1.5h27.6a13.89,13.89,0,0,0,.48-3H285.33A14.53,14.53,0,0,0,285.81,196.58Z"></path><path class="cls-7" d="M260.45,145.7c1.26-11.51,3.35-16.85,15.73-20.87,0,0,40.66,12.37,60.28,1.23,0,0,1.55,9.34,6.92,15.23,4.5,4.93,1.94,22.1,1.36,29.52l3,.3c1.79-7.57,6.15-21.19,6.62-25.2.29-2.53,1.37-12.57,1.83-19.74a35.31,35.31,0,0,0-3.57-18.23,23.8,23.8,0,0,0-6.77-8.47c-10.54-7.85-66.14-18.83-80.71-8.87-16.07,11-4.5,52.67-4.5,52.67"></path><path class="cls-3" d="M347.76,171.86h-.08l-3-.29a.74.74,0,0,1-.67-.81c.08-1.11.21-2.43.36-3.91.77-7.89,2.07-21.09-1.53-25-4.47-4.9-6.34-12-6.91-14.59-8.3,4.29-20.75,5.35-37.06,3.15a165.06,165.06,0,0,1-22.67-4.75c-12,4-13.8,9.21-15,20.17a.74.74,0,0,1-.82.66.75.75,0,0,1-.67-.82c.08-.72.16-1.42.25-2.1,0,0,0,0,0-.05a132.17,132.17,0,0,1-3.8-22.36c-1.2-15.93,1.69-26.4,8.59-31.13,14.7-10,70.76.82,81.58,8.89a24.34,24.34,0,0,1,7,8.73A36.16,36.16,0,0,1,357,126.22c-.48,7.41-1.59,17.64-1.84,19.77-.28,2.38-1.83,7.85-3.47,13.64-1.18,4.16-2.4,8.46-3.16,11.65A.75.75,0,0,1,347.76,171.86Zm-2.21-1.72,1.63.16c.76-3.14,1.91-7.17,3-11.08,1.56-5.48,3.17-11.15,3.43-13.4s1.36-12.31,1.83-19.7A34.55,34.55,0,0,0,352,108.28a22.88,22.88,0,0,0-6.55-8.21c-10.62-7.91-65.5-18.66-79.84-8.85-12.83,8.78-7.31,38.49-5,48.51,1.54-7.69,4.85-12.19,15.39-15.62a.86.86,0,0,1,.45,0c.41.12,40.57,12.15,59.69,1.3a.73.73,0,0,1,.69,0,.74.74,0,0,1,.42.55c0,.09,1.58,9.19,6.74,14.85,4.05,4.44,2.76,17.53,1.91,26.2C345.74,168.14,345.63,169.2,345.55,170.14Z"></path><path class="cls-2" d="M260.35,143.57l-.21,2.43c.75-6.74,1.76-11.36,5-14.84-2-13.17-2.78-32.15,7.29-39,7.12-4.86,24-4.73,40.66-2.42-18.84-3.36-40-4.39-48.22,1.22C248.78,101.9,260.35,143.57,260.35,143.57Z"></path><path class="cls-4" d="M344.14,188.26c5.68-1.11,12.09-6,12.09-12.44,0-7.34-4.94-13.3-11-13.3-.26,0-1.23.22-1.49.24"></path><path class="cls-3" d="M344.28,189l-.29-1.47c5.53-1.08,11.49-5.86,11.49-11.7,0-6.92-4.61-12.55-10.28-12.55a7.32,7.32,0,0,0-.75.12c-.29.06-.55.11-.67.12l-.14-1.49.53-.1a6,6,0,0,1,1-.15c6.5,0,11.78,6.3,11.78,14C357,182.51,350.52,187.77,344.28,189Z"></path><path class="cls-4" d="M298.38,399.92c18-4.77,63.27-14,85.05-13.23l-7.86-26.32L421,355.85l8,26.86a30.42,30.42,0,0,1-24.67,41.34c-19.19,2.32-64.13,3-102.59,2.31l-1.16-.07"></path><path class="cls-3" d="M331.31,427.37c-10.21,0-20.29-.09-29.51-.26l-1.2-.07.1-1.5c.37,0,.75.06,1.13.07,34.85.64,81.79.2,102.48-2.31A29.65,29.65,0,0,0,428.37,383l-7.87-26.32L376.55,361l7.9,26.45-1.05,0c-21.39-.79-66.53,8.36-84.83,13.2l-.38-1.45c18.08-4.78,62.28-13.75,84.23-13.28l-7.83-26.19,47-4.68,8.21,27.46a31.17,31.17,0,0,1-25.3,42.29C389.22,426.64,359.73,427.37,331.31,427.37Z"></path><path class="cls-4" d="M298.38,399.92h-.07c-1.86.39-54.47,12.36-66.06,25.2a5.93,5.93,0,0,0,7.13,8.27c9.46-3.09,25.82-12.08,33.54-9.7,0,0,20.51,5.05,27.73,2.59"></path><path class="cls-3" d="M237.52,434.45a6.71,6.71,0,0,1-6-9.66.66.66,0,0,1,.12-.17c11.88-13.15,65.93-25.31,66.47-25.42h0a.74.74,0,0,1,.94.73.75.75,0,0,1-.63.74h0c-.53.12-53.87,12.11-65.6,24.89a5.19,5.19,0,0,0,6.28,7.14c2.63-.86,5.82-2.19,9.19-3.59,8.9-3.71,19-7.91,24.8-6.12.17,0,20.34,5,27.27,2.6a.75.75,0,1,1,.48,1.42c-7.34,2.5-27.3-2.37-28.15-2.57-5.33-1.64-15.15,2.44-23.82,6.05-3.41,1.42-6.62,2.76-9.3,3.63A6.73,6.73,0,0,1,237.52,434.45Z"></path><path class="cls-3" d="M298.31,400.68a.75.75,0,0,1-.12-1.49.74.74,0,0,1,.94.73.75.75,0,0,1-.63.74Z"></path><path class="cls-2" d="M232.69,425.25c11.6-12.84,64.62-24.22,66.48-24.61h.07c12.1-3.21,24.42-5.7,36.73-7.93,14.28-2.58,28.86-5.05,43.4-5.32,1.64,0,3.29,0,4.93,0-3.59-9.29-5.06-17.7-8.65-27l8.08-1.06c3.11,5.38,4.11,9.88,7.22,15.26l4.66,8.07c.36.62,2.85,6.06,3.52,6.09-2.64-.11-5.44,1.2-8,1.77a86.94,86.94,0,0,1-9.05,1.45c-8.73,1-17.43,1.87-26.12,3.22q-3.87.6-7.74,1.26t-7.56,1.33c-2.41.45-4.81.9-7.22,1.38q-3.36.66-6.72,1.38-3,.65-6.09,1.33c-1.76.41-3.52.82-5.28,1.26-3.44.86-6.62,1.26-10,2.21-1.78.49-12.28,3.12-14.06,3.59-13.42,3.5-50.2,11.18-58.68,20.15-1.39.46-.76-.35.81,2.78C235.75,436.58,231.89,430.51,232.69,425.25Z"></path><path class="cls-3" d="M398.67,389.38c-.05,0-5-3.71-16.77-3.15l-.07-1.5c12.42-.59,17.55,3.3,17.76,3.46l-.92,1.19.46-.59Z"></path><path class="cls-1" d="M264.65,122.31a.75.75,0,0,1-.73-.61c-3.7-19,6.08-28,6.5-28.38a.75.75,0,0,1,1.06.06.76.76,0,0,1-.06,1.06c-.1.08-9.55,8.85-6,27a.75.75,0,0,1-.59.88Z"></path><path class="cls-1" d="M393.68,296a.75.75,0,0,1-.7-.49c-13-34.39-47.62-35.34-48-35.34a.76.76,0,0,1-.74-.76.74.74,0,0,1,.76-.74c.36,0,36,.95,49.35,36.31a.75.75,0,0,1-.43,1A.86.86,0,0,1,393.68,296Z"></path><path class="cls-4" d="M213.84,127.29c0-10-6.94-18.18-15.62-18.22,8.68,0,15.75-8,15.8-18.06-.05,10,6.95,18.18,15.62,18.22C221,109.19,213.89,117.26,213.84,127.29Z"></path><path class="cls-3" d="M214.54,127.29h-1.4a18.83,18.83,0,0,0-4.37-12.39,13.93,13.93,0,0,0-10.55-5.12v-1.4a13.85,13.85,0,0,0,10.6-5A18.79,18.79,0,0,0,213.32,91h1.4c-.05,9.61,6.65,17.47,14.93,17.51v1.4C221.35,109.86,214.58,117.67,214.54,127.29Zm-11.86-18.2a16,16,0,0,1,7.15,4.89,19.35,19.35,0,0,1,4,7.85c1.65-6.12,5.95-10.91,11.34-12.62-5.38-1.77-9.63-6.6-11.21-12.74a19.36,19.36,0,0,1-4.12,7.8A15.91,15.91,0,0,1,202.68,109.09Z"></path><path class="cls-8" d="M209.57,424.26h166a9.53,9.53,0,0,1,9.53,9.53v6.57a0,0,0,0,1,0,0H209.57a0,0,0,0,1,0,0v-16.1A0,0,0,0,1,209.57,424.26Z"></path><path class="cls-3" d="M385.85,441.11h-177v-17.6H375.57a10.3,10.3,0,0,1,10.28,10.28Zm-175.53-1.5h174v-5.82a8.79,8.79,0,0,0-8.78-8.78H210.32Z"></path><path class="cls-8" d="M312.73,440.36H150.17l-36.59-110.7a9.33,9.33,0,0,1,8.86-12.26H265.35a9.32,9.32,0,0,1,8.85,6.4Z"></path><path class="cls-3" d="M313.77,441.11H149.63L112.87,329.9a10.08,10.08,0,0,1,9.57-13.25H265.35a10.07,10.07,0,0,1,9.57,6.92Zm-163.06-1.5h161L273.49,324a8.57,8.57,0,0,0-8.14-5.89H122.44a8.59,8.59,0,0,0-8.15,11.27Z"></path><path class="cls-4" d="M150.1,259.67s-6.35-12.77-27.19-9.65L108,253.14l-12.78-13a4.14,4.14,0,0,0-3.9-1.19c-1.92.49-3.32,1.31-1.14,7.85,0,0,5.5,11.62,11.13,16.88a7.56,7.56,0,0,0,3,1.74c4.4,1.32,18.5,4.52,26.32,3"></path><path class="cls-3" d="M125.74,269.59c-8.28,0-18.76-2.57-21.64-3.43a8.38,8.38,0,0,1-3.33-1.91C95.1,259,89.7,247.62,89.48,247.14c-1.27-3.77-1.49-6-.77-7.33a3.38,3.38,0,0,1,2.39-1.56,4.85,4.85,0,0,1,4.62,1.39l12.5,12.68,14.54-3c11-1.66,18,1.13,22,3.76a18.25,18.25,0,0,1,6,6.29.75.75,0,0,1-.34,1,.74.74,0,0,1-1-.33c-.26-.5-6.41-12.24-26.4-9.24l-14.91,3.1a.74.74,0,0,1-.68-.21l-12.79-13a3.35,3.35,0,0,0-3.18-1c-.73.19-1.2.38-1.44.82-.49.9-.21,2.94.84,6.06,0,0,5.46,11.47,10.92,16.57a7,7,0,0,0,2.74,1.58c3.44,1,17.93,4.54,26,3a.75.75,0,1,1,.28,1.47A26.91,26.91,0,0,1,125.74,269.59Z"></path><path class="cls-3" d="M317.92,209.53l-.68-1.33A66,66,0,0,0,347.69,175l1.41.49A67.44,67.44,0,0,1,317.92,209.53Z"></path><path class="cls-8" d="M313.2,205.79H320a0,0,0,0,1,0,0v8.36a0,0,0,0,1,0,0H313.2A4.18,4.18,0,0,1,309,210v0a4.18,4.18,0,0,1,4.18-4.18Z" transform="translate(-57.88 144.16) rotate(-23.71)"></path><path class="cls-3" d="M313.32,215.42a4.93,4.93,0,0,1-2-9.45l6.9-3,4,9-6.89,3A5,5,0,0,1,313.32,215.42Zm4.14-10.5-5.53,2.43a3.42,3.42,0,0,0-1.81,1.89,3.38,3.38,0,0,0,.05,2.63,3.44,3.44,0,0,0,4.52,1.76l5.52-2.43Z"></path><path class="cls-3" d="M351.23,177.91l-1.49-.18a5.51,5.51,0,0,0-.95-4.44,4.41,4.41,0,0,0-2.91-1.33v-1.5a5.82,5.82,0,0,1,4,1.82C351.08,173.61,351.52,175.5,351.23,177.91Z"></path><path class="cls-3" d="M339.34,433.59a15.09,15.09,0,0,1-3-.3.75.75,0,0,1,.3-1.47c4,.81,8.24-.22,12.26-3a31.4,31.4,0,0,0,12.32-19.58c2-12.14-2.73-24.37-6.9-35.15-4-10.39-9-23.32-6.81-36,1.72-9.84,7.54-18.3,13.18-26.49s11.56-16.81,13-26.62c2-13.29-4.7-26.58-9.9-35.42-1.37-2.34-2.83-4.71-4.24-7-5.21-8.43-10.58-17.15-13.19-26.86-4.44-16.5,1.63-29.6,9.62-35.27a.74.74,0,0,1,1,.18.75.75,0,0,1-.17,1c-7.56,5.37-13.29,17.86-9.05,33.66,2.56,9.5,7.88,18.12,13,26.46,1.42,2.3,2.88,4.67,4.27,7,5.31,9,12.13,22.64,10.09,36.4-1.51,10.16-7.49,18.85-13.28,27.25-5.54,8.06-11.27,16.38-12.93,25.9-2.15,12.24,2.77,24.95,6.73,35.17,4.24,11,9,23.39,7,35.93a33,33,0,0,1-12.95,20.58A18.41,18.41,0,0,1,339.34,433.59Z"></path><ellipse class="cls-8" cx="350.91" cy="171.54" rx="12.2" ry="11.31" transform="matrix(0.25, -0.97, 0.97, 0.25, 95.59, 467.13)"></ellipse><path class="cls-3" d="M350.51,184.44a11.48,11.48,0,0,1-2.9-.37,11.62,11.62,0,0,1-7.29-5.87A13.65,13.65,0,0,1,345,160.52a11.47,11.47,0,0,1,16.52,4.36,13.35,13.35,0,0,1,1.07,9.73h0a13.4,13.4,0,0,1-5.72,7.95A11.88,11.88,0,0,1,350.51,184.44Zm.81-24.3a10.34,10.34,0,0,0-5.54,1.65,12.15,12.15,0,0,0-4.14,15.7,10,10,0,0,0,14.4,3.8,11.87,11.87,0,0,0,5.08-7.06h0a11.87,11.87,0,0,0-.94-8.64,10.1,10.1,0,0,0-6.35-5.13A10.22,10.22,0,0,0,351.32,160.14Z"></path><ellipse class="cls-5" cx="350.91" cy="171.54" rx="5.35" ry="4.96" transform="translate(95.59 467.13) rotate(-75.23)"></ellipse><path class="cls-3" d="M350.72,177.62a5.3,5.3,0,0,1-1.36-.18,5.46,5.46,0,0,1-3.46-2.78,6.41,6.41,0,0,1,2.19-8.3,5.44,5.44,0,0,1,7.84,2.06,6.33,6.33,0,0,1,.5,4.57A6,6,0,0,1,350.72,177.62Zm.37-10.66a4.15,4.15,0,0,0-2.2.66,4.92,4.92,0,0,0-1.67,6.33,4,4,0,0,0,2.52,2,4.43,4.43,0,0,0,5.24-3.38h0a4.8,4.8,0,0,0-.38-3.48,4,4,0,0,0-2.52-2A4.07,4.07,0,0,0,351.09,167Z"></path><ellipse class="cls-3" cx="336.14" cy="432.28" rx="1.64" ry="2.83"></ellipse><ellipse class="cls-3" cx="327.01" cy="432.28" rx="1.64" ry="2.83"></ellipse><circle class="cls-5" cx="200.63" cy="229.11" r="18.52"></circle><path class="cls-3" d="M200.63,248.38a19.27,19.27,0,1,1,19.27-19.27A19.29,19.29,0,0,1,200.63,248.38Zm0-37a17.77,17.77,0,1,0,17.77,17.77A17.79,17.79,0,0,0,200.63,211.34Z"></path><circle class="cls-5" cx="397.05" cy="103.3" r="25.29"></circle><path class="cls-3" d="M397.05,129.34a26,26,0,1,1,26-26A26.07,26.07,0,0,1,397.05,129.34Zm0-50.57a24.54,24.54,0,1,0,24.53,24.53A24.56,24.56,0,0,0,397.05,78.77Z"></path><polygon class="cls-3" points="208.03 237.39 200.05 229.42 200.05 214.43 201.55 214.43 201.55 228.8 209.09 236.33 208.03 237.39"></polygon><path class="cls-4" d="M407.09,118.65a12.66,12.66,0,0,1-7.7-1.07,22.47,22.47,0,0,1-5.41-3.71,44.91,44.91,0,0,1-9.1-10.93,15.15,15.15,0,0,1-1.83-4.74,9.34,9.34,0,0,1,1.83-7.5,11.22,11.22,0,0,1,2.52-2.63,6,6,0,0,1,1.37-.68,1.51,1.51,0,0,1,1.5.26,4.24,4.24,0,0,1,.64.63,34.23,34.23,0,0,1,3.72,5.65,6.52,6.52,0,0,1,.33.83,1.07,1.07,0,0,1-.5,1.27,11.12,11.12,0,0,1-1.27.7c-.56.26-1.14.49-1.71.73-1,.41-1.29,1-1,1.91a14.58,14.58,0,0,0,1.73,3.17,33,33,0,0,0,7.25,7.73,12.53,12.53,0,0,0,1.34.9,1.7,1.7,0,0,0,2.41-.4c.43-.48.84-1,1.28-1.45a7,7,0,0,1,.91-.81,1.36,1.36,0,0,1,1.53-.13,5.87,5.87,0,0,1,.84.51,38.08,38.08,0,0,1,5.15,4.46,4.09,4.09,0,0,1,.43.52,1.4,1.4,0,0,1-.09,1.87,4.77,4.77,0,0,1-1.46,1.17A15.67,15.67,0,0,1,407.09,118.65Z"></path><path class="cls-3" d="M404.83,119.57a13.22,13.22,0,0,1-5.76-1.31,23,23,0,0,1-5.59-3.83,45.23,45.23,0,0,1-9.25-11.11,15.69,15.69,0,0,1-1.91-5,10.07,10.07,0,0,1,2-8.08A11.67,11.67,0,0,1,387,87.45a7.13,7.13,0,0,1,1.54-.77,2.3,2.3,0,0,1,2.22.38,4.63,4.63,0,0,1,.77.76,34.28,34.28,0,0,1,3.79,5.77,6.45,6.45,0,0,1,.39,1,1.83,1.83,0,0,1-.81,2.11,11.86,11.86,0,0,1-1.36.75c-.37.17-.76.33-1.14.49l-.6.25c-.73.32-.69.59-.55,1a13.33,13.33,0,0,0,1.63,3,32.41,32.41,0,0,0,7.09,7.56,11.72,11.72,0,0,0,1.27.85,1,1,0,0,0,1.47-.25l.41-.47c.29-.34.58-.67.89-1a7.59,7.59,0,0,1,1-.89,2.17,2.17,0,0,1,2.33-.2c.32.17.63.36.93.56a38.68,38.68,0,0,1,5.25,4.56,5.15,5.15,0,0,1,.51.61,2.14,2.14,0,0,1-.12,2.77,5.52,5.52,0,0,1-1.69,1.35,16.12,16.12,0,0,1-5,1.83h0A16.27,16.27,0,0,1,404.83,119.57ZM389.3,88a1,1,0,0,0-.28,0,5.73,5.73,0,0,0-1.19.6,10.08,10.08,0,0,0-2.34,2.46,8.5,8.5,0,0,0-1.7,6.92,14.35,14.35,0,0,0,1.74,4.5,43.71,43.71,0,0,0,9,10.74,21.58,21.58,0,0,0,5.23,3.59,11.9,11.9,0,0,0,7.27,1,14.51,14.51,0,0,0,4.49-1.65,4,4,0,0,0,1.24-1c.33-.42.29-.64.06-1a3.39,3.39,0,0,0-.35-.42,37,37,0,0,0-5.05-4.38,6.2,6.2,0,0,0-.75-.45.63.63,0,0,0-.74.06,6.74,6.74,0,0,0-.81.72c-.29.31-.57.63-.84,1l-.42.49a2.46,2.46,0,0,1-3.36.55,16.73,16.73,0,0,1-1.42-.95,34.08,34.08,0,0,1-7.41-7.9,15.12,15.12,0,0,1-1.81-3.34,2.12,2.12,0,0,1,1.37-2.86l.61-.25c.37-.15.73-.3,1.08-.47a9.62,9.62,0,0,0,1.18-.65c.24-.16.23-.29.19-.43a4.09,4.09,0,0,0-.28-.7,33.15,33.15,0,0,0-3.64-5.53,3.59,3.59,0,0,0-.52-.5A.8.8,0,0,0,389.3,88Z"></path><path class="cls-1" d="M111.83,97.79c1.39,0,2.78,0,4.17.06a1.5,1.5,0,0,1,1.39,1.59,1.42,1.42,0,0,1-1.45,1.49c-1.24,0-2.5-.08-3.74,0-9.32.92-17,8.18-19.3,18.28,0,.09,0,.19-.07.29a1.34,1.34,0,0,1-1.69,1.08,1.6,1.6,0,0,1-1-1.92,26.59,26.59,0,0,1,1.79-5.52q5.39-11.84,17-14.81c.43-.11.86-.21,1.3-.28s1-.11,1.58-.17Z"></path><path class="cls-1" d="M112.67,103.92c.67,0,1.58,0,2.49,0a1.48,1.48,0,0,1,1.42,1.55,1.39,1.39,0,0,1-1.41,1.53,15,15,0,0,0-4.48.44q-9.41,2.61-12.36,12.93c-.19.67-.46,1.2-1.12,1.33-1.07.22-1.9-.84-1.6-2.06a22,22,0,0,1,3-6.92A19.09,19.09,0,0,1,112.67,103.92Z"></path><path class="cls-1" d="M113.06,110.12c.41,0,.82-.12,1.24-.12a1.49,1.49,0,0,1,1.48,1.57,1.44,1.44,0,0,1-1.42,1.52c-4.78,0-9,3.39-10.6,8.46-.26.81-.71,1.22-1.33,1.22a1.55,1.55,0,0,1-1.34-2.1,15.29,15.29,0,0,1,2.47-5A13.32,13.32,0,0,1,113.06,110.12Z"></path><path class="cls-4" d="M172.3,187.08a2.33,2.33,0,0,1-1.46.71l-68.14,7.38a2.41,2.41,0,0,1-2.64-2.13l-5.17-47.77,0-.44a2.35,2.35,0,0,1,.64-1.9,2.32,2.32,0,0,1,1.48-.74l68.15-7.38a2.35,2.35,0,0,1,1.61.4,2.39,2.39,0,0,1,1,1.72l.06.57L173,185.15A2.39,2.39,0,0,1,172.3,187.08Z"></path><path class="cls-3" d="M102.45,195.93a3.15,3.15,0,0,1-3.14-2.81l-5.22-48.21a3.15,3.15,0,0,1,2.79-3.47L165,134.06a3.16,3.16,0,0,1,3.47,2.79l.06.57,5.16,47.65a3.17,3.17,0,0,1-2.8,3.47l-68.14,7.37A1.83,1.83,0,0,1,102.45,195.93Zm62.93-60.39h-.19L97,142.93a1.64,1.64,0,0,0-1,.51,1.66,1.66,0,0,0-.44,1.31l0,.44L100.8,193a1.68,1.68,0,0,0,.7,1.18,1.72,1.72,0,0,0,1.12.28L170.76,187a1.63,1.63,0,0,0,1-.48h0a1.66,1.66,0,0,0,.46-1.33L167,137a1.67,1.67,0,0,0-1.62-1.47Z"></path><path class="cls-4" d="M172.3,187.08a2.33,2.33,0,0,1-1.46.71l-68.14,7.38a2.41,2.41,0,0,1-1.62-.42l25-28.92,5.54-6.42a2.41,2.41,0,0,1,3.26-.36l6.83,5.12Z"></path><path class="cls-3" d="M102.45,195.93a3.14,3.14,0,0,1-1.8-.56l-.68-.48,31.08-36a3.16,3.16,0,0,1,4.27-.47L173.43,187l-.59.61a3.19,3.19,0,0,1-1.91.94l-68.15,7.37A1.83,1.83,0,0,1,102.45,195.93Zm-.1-1.5h.27L170.76,187a.64.64,0,0,0,.2,0l-36.54-27.36a1.66,1.66,0,0,0-2.24.25Z"></path><path class="cls-2" d="M167.43,137.23l-24.52,28.7-6.08,7.12a2.69,2.69,0,0,1-3.61.42l-7.67-5.54L94.81,145.7l0-.44a2.31,2.31,0,0,1,.61-1.88,2.4,2.4,0,0,1,1.48-.75l67.86-8a2.41,2.41,0,0,1,1.61.38,2.37,2.37,0,0,1,1.05,1.68Z"></path><path class="cls-8" d="M166.72,135.36l-25,29-5.54,6.42a2.39,2.39,0,0,1-3.25.35L126.07,166l-30.59-22.9a2.37,2.37,0,0,1,1.49-.74L165.11,135A2.41,2.41,0,0,1,166.72,135.36Z"></path><path class="cls-3" d="M134.34,172.32a3.13,3.13,0,0,1-1.88-.63l-38.1-28.52.57-.61a3.16,3.16,0,0,1,2-1L165,134.21a3.08,3.08,0,0,1,2.12.53l.69.48-31.11,36A3.18,3.18,0,0,1,134.34,172.32ZM96.8,143.12l36.56,27.37a1.65,1.65,0,0,0,2.23-.24l29.86-34.56h-.26l-68.14,7.38Z"></path><path class="cls-3" d="M104.15,203.34A15.83,15.83,0,0,1,91,195.91a.75.75,0,0,1,.2-1,.76.76,0,0,1,1,.2c5,7.51,12.36,6.77,12.68,6.74a.75.75,0,1,1,.17,1.49C105,203.3,104.69,203.34,104.15,203.34Z"></path><path class="cls-4" d="M474,222.44a2.68,2.68,0,0,1-1.63.79L396,231.5a2.66,2.66,0,0,1-1.82-.46,2.69,2.69,0,0,1-1.15-1.92l-5.79-53.55-.06-.5a2.71,2.71,0,0,1,.72-2.13,2.65,2.65,0,0,1,1.67-.83l76.39-8.27a2.57,2.57,0,0,1,1.8.46,2.65,2.65,0,0,1,1.16,1.92l.06.63,5.79,53.42A2.7,2.7,0,0,1,474,222.44Z"></path><path class="cls-3" d="M395.66,232.27a3.46,3.46,0,0,1-3.42-3.07l-5.85-54a3.43,3.43,0,0,1,.91-2.73,3.51,3.51,0,0,1,2.14-1.06l76.39-8.27a3.45,3.45,0,0,1,3.78,3l.07.63,5.79,53.42a3.42,3.42,0,0,1-1,2.77,3.49,3.49,0,0,1-2.09,1L396,232.25Zm70.55-67.7H466l-76.39,8.27a1.95,1.95,0,0,0-1.72,2.14l.05.5,5.8,53.55a2,2,0,0,0,2.14,1.72l76.38-8.27a1.87,1.87,0,0,0,1.18-.58h0a1.92,1.92,0,0,0,.55-1.56l-5.86-54a2,2,0,0,0-1.91-1.73Z"></path><path class="cls-4" d="M474,222.44a2.68,2.68,0,0,1-1.63.79L396,231.5a2.71,2.71,0,0,1-1.82-.46l28-32.43,6.22-7.2A2.69,2.69,0,0,1,432,191l7.67,5.74Z"></path><path class="cls-3" d="M395.66,232.27a3.45,3.45,0,0,1-2-.62l-.68-.47,34.77-40.26a3.44,3.44,0,0,1,4.66-.5l42.65,31.92-.59.62a3.46,3.46,0,0,1-2.09,1L396,232.25Zm-.28-1.52a2.66,2.66,0,0,0,.49,0l76.39-8.27a3,3,0,0,0,.41-.09l-41.11-30.78a2,2,0,0,0-2.63.28Z"></path><path class="cls-2" d="M468.51,166.55,441,198.72l-6.83,8a3,3,0,0,1-4,.48L421.57,201,387.1,176.05l-.06-.49a2.66,2.66,0,0,1,.69-2.11,2.71,2.71,0,0,1,1.66-.84l76.07-9a2.7,2.7,0,0,1,1.81.43,2.66,2.66,0,0,1,1.17,1.89Z"></path><path class="cls-5" d="M467.72,164.46l-28.05,32.46-6.22,7.2a2.68,2.68,0,0,1-3.64.39l-7.67-5.74L387.85,173.1a2.68,2.68,0,0,1,1.67-.83L465.91,164A2.72,2.72,0,0,1,467.72,164.46Z"></path><path class="cls-3" d="M431.42,205.79a3.42,3.42,0,0,1-2.06-.68L386.73,173.2l.57-.61a3.4,3.4,0,0,1,2.14-1.06l76.39-8.27a3.34,3.34,0,0,1,2.31.58l.69.48L434,204.61A3.43,3.43,0,0,1,431.42,205.79Zm-42.29-32.66,41.13,30.78a2,2,0,0,0,2.63-.28l33.58-38.88a1.93,1.93,0,0,0-.48,0L389.6,173A1.53,1.53,0,0,0,389.13,173.13Z"></path><path class="cls-3" d="M475.77,163.37a.74.74,0,0,1-.57-.27c-6.61-7.76-14.73-6-15.07-5.92a.74.74,0,0,1-.9-.56.76.76,0,0,1,.56-.9c.38-.09,9.33-2.07,16.55,6.41a.76.76,0,0,1-.08,1.06A.78.78,0,0,1,475.77,163.37Z"></path><path class="cls-3" d="M414,130.79a.76.76,0,0,1-.65-.38.76.76,0,0,1,.29-1c13-7.27,12.77-19.78,12.77-19.9a.76.76,0,0,1,.72-.78.75.75,0,0,1,.78.73c0,.13.29,13.55-13.54,21.27A.81.81,0,0,1,414,130.79Z"></path></svg>