<svg xmlns="http://www.w3.org/2000/svg" id="Layer_1" width="400" height="400" data-name="Layer 1" viewBox="0 0 550 500"><defs><style>.cls-1,.cls-5{fill:#fff}.cls-2{fill:#3a0ca3}.cls-3{fill:#4cc9f0}.cls-4{fill:#4361ee}.cls-5{opacity:.3}.cls-6{fill:#480ca8}.cls-7{fill:#4895ef}</style></defs><path d="M460.67,376.11l-28.25-132.3a7.53,7.53,0,0,0-10.13-5.43l-70.89,28-78.14-25.67-78.14,29-80-28.3a7.53,7.53,0,0,0-9.92,5.73L81.57,375.2a7.52,7.52,0,0,0,4.66,8.38l96.71,37.91,90.32-30.13,100.47,24.55L456,384.72A7.53,7.53,0,0,0,460.67,376.11Z" class="cls-1"/><path d="M182.92,422.29l-97-38a8.29,8.29,0,0,1-5.12-9.21L104.49,247a8.28,8.28,0,0,1,10.9-6.3l79.72,28.21,78.13-29,78.14,25.67L422,237.68a8.28,8.28,0,0,1,11.14,6L461.4,376a8.23,8.23,0,0,1-5.16,9.47l-82.46,31.27L273.29,392.14ZM112.63,241.72a6.79,6.79,0,0,0-6.67,5.55L82.31,375.34a6.78,6.78,0,0,0,4.19,7.54L183,420.69l90.27-30.11,100.45,24.55,82-31.11a6.75,6.75,0,0,0,4.23-7.76L431.68,244a6.77,6.77,0,0,0-9.12-4.89l-71.13,28.08-.26-.08-77.89-25.59-78.16,29-80.23-28.4A6.76,6.76,0,0,0,112.63,241.72Z" class="cls-2"/><path d="M422.8,229.89l-70.89,28,22.33,149.55,82.24-31.19a7.53,7.53,0,0,0,4.7-8.62L432.93,235.32A7.53,7.53,0,0,0,422.8,229.89Z" class="cls-3"/><path d="M373.63,408.45,351.08,257.39l71.44-28.2a8.27,8.27,0,0,1,11.14,6l28.25,132.3a8.24,8.24,0,0,1-5.16,9.47Zm-20.89-150.1,22.1,148,81.38-30.85a6.76,6.76,0,0,0,4.23-7.76l-28.26-132.3a6.77,6.77,0,0,0-9.12-4.89Z" class="cls-2"/><path d="M105.73,238.64,82.08,366.71a7.53,7.53,0,0,0,4.66,8.38L183.45,413l12.18-151.78-80-28.31A7.54,7.54,0,0,0,105.73,238.64Z" class="cls-4"/><path d="M184.11,414.06,86.46,375.79a8.31,8.31,0,0,1-5.12-9.22L105,238.51a8.27,8.27,0,0,1,10.9-6.31l80.52,28.5,0,.58Zm-71-180.83a6.79,6.79,0,0,0-6.67,5.55L82.82,366.84A6.79,6.79,0,0,0,87,374.39l95.77,37.54,12.05-150.2L115.4,233.62A6.76,6.76,0,0,0,113.14,233.23Z" class="cls-2"/><polygon points="195.63 261.22 183.45 413 273.77 382.86 273.77 232.2 195.63 261.22" class="cls-3"/><path d="M182.61,414.07l12.31-153.39,79.6-29.56V383.4Zm13.73-152.32L184.29,411.93,273,382.32v-149Z" class="cls-2"/><polygon points="273.77 232.2 273.77 382.86 374.24 407.42 351.91 257.87 273.77 232.2" class="cls-4"/><path d="M375.15,408.41,273,383.45V231.16l79.57,26.14ZM274.52,382.27l98.81,24.15-22.09-148-76.72-25.2Z" class="cls-2"/><polygon points="249.23 371.71 251.56 305.73 174.92 297.38 168.73 332.98 91.1 317.58 91.39 316.11 167.51 331.21 173.68 295.74 253.1 304.39 250.8 369.74 273.19 363.77 292.46 369.16 344.1 349.13 362.99 347.55 385.25 361.37 451.31 327.56 451.99 328.9 385.18 363.09 362.62 349.09 344.44 350.6 292.54 370.74 273.18 365.32 249.23 371.71" class="cls-2"/><polygon points="327.25 328.45 301.56 308.31 306.36 291.53 328.53 292.12 326.41 250.38 329.21 250.38 331.79 250.25 334.2 297.65 310.38 297.01 307.73 306.31 328.01 322.21 358 308.75 373.92 314.88 411.86 290.36 410.61 259.07 434.83 247.31 437.19 252.15 416.13 262.37 417.36 293.21 374.54 320.88 358.16 314.57 327.25 328.45" class="cls-5"/><polygon points="205.66 405.01 203.88 375.27 186.23 363.31 161.95 359.76 138.89 366.62 122.2 363.28 117.17 386.78 111.91 385.65 118.05 356.96 138.64 361.08 161.56 354.27 188.22 358.17 209.09 372.31 211.03 404.69 205.66 405.01" class="cls-5"/><polygon points="131.59 281.26 99.17 270.75 99.63 269.32 130.53 279.34 139.75 243.32 141.2 243.69 131.59 281.26" class="cls-2"/><line x1="411.8" x2="404.71" y1="315.48" y2="332.16" class="cls-3"/><path d="M404.71,332.92a.72.72,0,0,1-.29-.06.76.76,0,0,1-.4-1l7.09-16.68a.75.75,0,1,1,1.38.58l-7.09,16.69A.76.76,0,0,1,404.71,332.92Z" class="cls-2"/><line x1="399.91" x2="416.6" y1="320.28" y2="327.37" class="cls-3"/><path d="M416.6,328.12a.72.72,0,0,1-.29-.06L399.62,321a.75.75,0,1,1,.59-1.38l16.68,7.09a.75.75,0,0,1,.4,1A.76.76,0,0,1,416.6,328.12Z" class="cls-2"/><circle cx="206.27" cy="298.85" r="6" class="cls-6"/><path d="M206.27,305.6a6.76,6.76,0,1,1,6.75-6.75A6.76,6.76,0,0,1,206.27,305.6Zm0-12a5.26,5.26,0,1,0,5.25,5.26A5.26,5.26,0,0,0,206.27,293.59Z" class="cls-2"/><circle cx="309.94" cy="364.49" r="6" class="cls-3"/><path d="M309.94,371.25a6.76,6.76,0,1,1,6.76-6.76A6.76,6.76,0,0,1,309.94,371.25Zm0-12a5.26,5.26,0,1,0,5.26,5.25A5.26,5.26,0,0,0,309.94,359.24Z" class="cls-2"/><path d="M76,191.77a19,19,0,0,1,11.44-23.31,28.73,28.73,0,0,1,54.24-1.92l.89,0a19,19,0,0,1,17.64,12,12.7,12.7,0,0,1,17.06,11.93c0,.36,0,.71,0,1.06a8.24,8.24,0,0,1-.77,16.45H78.12A8.24,8.24,0,0,1,76,191.77Z" class="cls-7"/><path d="M481.5,181.38a26.22,26.22,0,0,0-15.8-32.17,39.64,39.64,0,0,0-74.84-2.65q-.62,0-1.23,0a26.18,26.18,0,0,0-24.35,16.57,17.54,17.54,0,0,0-23.54,16.47c0,.49,0,1,.07,1.47a11.37,11.37,0,0,0,1.06,22.69H478.56a11.37,11.37,0,0,0,2.94-22.35Z" class="cls-7"/><path d="M275.47,95.34a80.14,80.14,0,0,0-80.06,80.06c0,42.5,72.64,141.78,75.73,146l2.88,3.93a1.79,1.79,0,0,0,2.9,0l2.88-3.93c3.09-4.2,75.73-103.48,75.73-146A80.15,80.15,0,0,0,275.47,95.34Zm0,51.38a28.68,28.68,0,1,1-28.68,28.68A28.71,28.71,0,0,1,275.47,146.72Z" class="cls-6"/><path d="M275.47,326.74a2.47,2.47,0,0,1-2-1l-2.89-3.93c-3.1-4.21-75.87-103.62-75.87-146.39a80.76,80.76,0,1,1,161.51,0c0,42.84-72.77,142.19-75.86,146.4l-2.89,3.92A2.5,2.5,0,0,1,275.47,326.74Zm0-230.71A79.45,79.45,0,0,0,196.1,175.4c0,42.33,72.51,141.38,75.6,145.57l2.88,3.93a1.14,1.14,0,0,0,1.78,0l2.88-3.92c.82-1.11,20.17-27.46,39-58.59,16.69-27.6,36.6-65.1,36.6-87A79.46,79.46,0,0,0,275.47,96Zm0,108.74a29.37,29.37,0,1,1,29.37-29.37A29.4,29.4,0,0,1,275.47,204.77Zm0-57.36a28,28,0,1,0,28,28A28,28,0,0,0,275.47,147.41Z" class="cls-2"/><circle cx="164.78" cy="109.5" r="25.47" class="cls-3"/><path d="M164.78,135.72A26.22,26.22,0,1,1,191,109.5,26.25,26.25,0,0,1,164.78,135.72Zm0-50.94A24.72,24.72,0,1,0,189.5,109.5,24.75,24.75,0,0,0,164.78,84.78Z" class="cls-2"/><path d="M307,263.55a.74.74,0,0,1-.64-1.12l.72-1.22c2.93-5,6.14-10.13,9.25-15.08,9.85-15.71,20-31.95,24.78-49.46,4.66-17.19,3.39-36.55-3.57-54.52a.74.74,0,0,1,.42-1,.75.75,0,0,1,1,.42c7.07,18.26,8.36,37.95,3.62,55.45-4.8,17.72-15,34.06-25,49.86-3.1,4.94-6.31,10.06-9.23,15l-.71,1.22A.75.75,0,0,1,307,263.55Z" class="cls-7"/><rect width="1.5" height="8.49" x="273.02" y="382.86" class="cls-2"/><line x1="374.24" x2="373.73" y1="407.42" y2="415.91" class="cls-1"/><rect width="8.51" height="1.5" x="369.73" y="410.91" class="cls-2" transform="translate(-59.34 760.31) rotate(-86.57)"/><line x1="183.45" x2="182.94" y1="413" y2="421.49" class="cls-1"/><rect width="8.51" height="1.5" x="178.94" y="416.49" class="cls-2" transform="translate(-244.27 575.11) rotate(-86.57)"/><line x1="143.96" x2="131.14" y1="348.04" y2="360.86" class="cls-3"/><path d="M131.14,361.61a.79.79,0,0,1-.53-.22.75.75,0,0,1,0-1.06l12.82-12.82a.75.75,0,1,1,1.06,1.06l-12.82,12.82A.79.79,0,0,1,131.14,361.61Z" class="cls-2"/><line x1="131.14" x2="143.96" y1="348.04" y2="360.86" class="cls-3"/><path d="M144,361.61a.77.77,0,0,1-.53-.22l-12.82-12.82a.75.75,0,1,1,1.06-1.06l12.82,12.82a.75.75,0,0,1,0,1.06A.79.79,0,0,1,144,361.61Z" class="cls-2"/></svg>