<svg id="Layer_1" data-name="Layer 1" xmlns="http://www.w3.org/2000/svg" viewBox="0 0 550 500" width="400" height="400"><defs><style>.cls-1{fill:#d8ffff;}.cls-2{fill:#24071d;}.cls-3{fill:#ffffff;}.cls-4{fill:#3c4e9f;opacity:0.26;}.cls-5{fill:#4cc9f0;}.cls-6{fill:#4361ee;}.cls-7{fill:#3a0ca3;}</style></defs><rect class="cls-1" x="85.08" y="228.51" width="186.36" height="85.71"></rect><path class="cls-2" d="M92,323.78a42.11,42.11,0,0,1-10-29.15,35.1,35.1,0,0,1,1.13-7.7,4.45,4.45,0,0,1,2.06-3.11c1.48-.68,3.11.29,4.2,1.29,3.69,3.36,5,8.72,5.08,13.52.11,5.68-1.18,11.28-2.63,16.73-.21.79,1,1.38,1.37.58a28.53,28.53,0,0,1,8-10.69c2.91-2.39,8.86-6.51,12-2.32,2.08,2.83,1.37,7.05-1,9.47-3,3.14-7.56,4.12-11.65,5-4.65,1-9.55,2-13,5.58-.67.69.39,1.75,1.06,1.06,6.9-7.1,20-3.26,25.81-12a9.09,9.09,0,0,0-.15-10c-3.09-4.06-8.34-1.87-11.8.46a29.66,29.66,0,0,0-10.58,12.75l1.37.58c1.48-5.57,2.79-11.33,2.68-17.13-.1-5.16-1.52-10.77-5.37-14.45-1.79-1.72-4.63-3-6.84-1.24-2,1.58-2.4,4.64-2.77,7a43.4,43.4,0,0,0,9.92,34.91c.63.73,1.69-.34,1.06-1.06Z"></path><rect class="cls-1" x="303.94" y="192.89" width="174.28" height="91.75"></rect><path class="cls-1" d="M438.4,196a39.72,39.72,0,0,1-9.31-27.55,31.64,31.64,0,0,1,1.05-7.1,4.82,4.82,0,0,1,.48-1.26s.22-.48.13-.23c.14-.4.36-.25.14-.17,0,0-.82-.17.26,0-.16,0-.22-.1.3.09a4,4,0,0,1,1.19.77c3.31,2.91,4.34,7.75,4.42,11.93.11,5.51-1.14,10.8-2.55,16.13a3,3,0,0,0,1.74,3.54c1.25.5,3.14.16,3.75-1.22a26.77,26.77,0,0,1,7.65-10.24,16.75,16.75,0,0,1,5.35-3.19,3.8,3.8,0,0,1,2.38-.08c-.5-.16.28.16.47.29-.6-.4.63.78.21.21a4.75,4.75,0,0,1,.88,3.5c0,.1-.06.59,0,.07a3.82,3.82,0,0,1-.11.57,8.62,8.62,0,0,1-.32,1.1c.19-.5-.26.47-.32.57a3.16,3.16,0,0,1-.74.93c-2.68,2.79-6.89,3.61-10.66,4.39-5,1-10.26,2.33-14,6.15-2.69,2.78,1.55,7,4.24,4.25,3.33-3.43,8.48-4,13-5,5-1.11,10.24-3,13.18-7.48a11.32,11.32,0,0,0-.15-12.32,8.19,8.19,0,0,0-6.52-3.43c-3-.07-5.92,1.45-8.36,3.09a31.77,31.77,0,0,0-11.39,13.56l5.49,2.31c1.52-5.76,2.88-11.74,2.76-17.73-.11-5.74-1.76-11.95-6-16-2.72-2.6-6.87-3.9-10-1.24-2.29,1.93-2.9,5.16-3.35,8a46,46,0,0,0,.89,18.8,45.52,45.52,0,0,0,9.62,18.3,3,3,0,0,0,4.24,0,3.07,3.07,0,0,0,0-4.25Z"></path><path class="cls-2" d="M450.58,294.75A43.52,43.52,0,0,0,460.79,262c-.28-2.59-.54-5.76-2-8s-3.95-2.44-6.12-1.22c-4.67,2.62-6.63,9-7,13.93-.51,6.4,1,12.84,2.59,19l1.37-.58a29.53,29.53,0,0,0-9-11.6c-3.3-2.56-8.68-5.88-12.55-2.52-2.67,2.31-3,6.6-1.64,9.69,1.78,4.19,6.53,6.18,10.65,7.26,5.41,1.43,11.68,1.73,15.81,6,.68.7,1.74-.37,1.07-1.06-6.34-6.53-16.7-4.09-23.56-9.56a8,8,0,0,1-2.57-9.54c2.26-4.75,7.78-2,10.93.22a28.19,28.19,0,0,1,9.56,11.88c.35.79,1.59.22,1.37-.58-2.39-9-5.13-20.66,1.12-28.78,1.59-2.06,5-4.66,6.89-1.45,1.25,2.1,1.47,5.15,1.7,7.53a42.22,42.22,0,0,1-1.49,15.61,41.39,41.39,0,0,1-8.34,15.5c-.63.73.43,1.79,1.06,1.06Z"></path><path class="cls-3" d="M506.55,292.76V393.54a7.18,7.18,0,0,1-7.14,7.23H348.23a7.19,7.19,0,0,1-7.14-7.23V292.76a7.18,7.18,0,0,1,7.14-7.23H499.41A7.18,7.18,0,0,1,506.55,292.76Z"></path><path class="cls-2" d="M499.41,401.52H348.23a7.94,7.94,0,0,1-7.89-8V292.76a7.94,7.94,0,0,1,7.89-8H499.41a7.94,7.94,0,0,1,7.89,8V393.54A7.94,7.94,0,0,1,499.41,401.52ZM348.23,286.28a6.44,6.44,0,0,0-6.39,6.48V393.54a6.45,6.45,0,0,0,6.39,6.48H499.41a6.44,6.44,0,0,0,6.39-6.48V292.76a6.43,6.43,0,0,0-6.39-6.48Z"></path><rect class="cls-4" x="399.47" y="285.25" width="24.74" height="115.24"></rect><rect class="cls-3" x="51.06" y="314.28" width="186.36" height="85.71" rx="7.23"></rect><path class="cls-2" d="M230.2,400.73H58.29a8,8,0,0,1-8-8V321.5a8,8,0,0,1,8-8H230.2a8,8,0,0,1,8,8v71.25A8,8,0,0,1,230.2,400.73ZM58.29,315a6.47,6.47,0,0,0-6.47,6.47v71.25a6.48,6.48,0,0,0,6.47,6.48H230.2a6.48,6.48,0,0,0,6.48-6.48V321.5A6.48,6.48,0,0,0,230.2,315Z"></path><rect class="cls-4" x="112.15" y="314.28" width="20.93" height="86.49"></rect><path class="cls-5" d="M282.68,213.38v187.1H135.62a7.23,7.23,0,0,1-7.23-7.23V213.38Z"></path><path class="cls-2" d="M282.68,401.23H135.62a8,8,0,0,1-8-8V213.38a.76.76,0,0,1,.75-.75H282.68a.75.75,0,0,1,.75.75v187.1A.74.74,0,0,1,282.68,401.23ZM129.14,214.13V393.25a6.48,6.48,0,0,0,6.48,6.48H281.93V214.13Z"></path><path class="cls-6" d="M411.47,213.38V393.25a7.22,7.22,0,0,1-7.23,7.23H283.15V213.38Z"></path><path class="cls-2" d="M404.24,401.23H283.15a.74.74,0,0,1-.75-.75V213.38a.75.75,0,0,1,.75-.75H411.47a.76.76,0,0,1,.75.75V393.25A8,8,0,0,1,404.24,401.23Zm-120.34-1.5H404.24a6.48,6.48,0,0,0,6.48-6.48V214.13H283.9Z"></path><rect class="cls-7" x="185.98" y="218.9" width="31.76" height="181.66"></rect><path class="cls-2" d="M217.74,401.31H186a.75.75,0,0,1-.75-.75V218.9a.74.74,0,0,1,.75-.75h31.75a.74.74,0,0,1,.75.75V400.56A.75.75,0,0,1,217.74,401.31Zm-31-1.5H217V219.65H186.74Z"></path><rect class="cls-7" x="328.82" y="218.9" width="31.76" height="181.66"></rect><path class="cls-2" d="M360.58,401.31H328.82a.76.76,0,0,1-.75-.75V218.9a.75.75,0,0,1,.75-.75h31.76a.74.74,0,0,1,.75.75V400.56A.75.75,0,0,1,360.58,401.31Zm-31-1.5h30.26V219.65H329.57Z"></path><path class="cls-4" d="M411.47,217.11V393.25a7.23,7.23,0,0,1-7.23,7.23h-3.55V241.23a10,10,0,0,0-10-10H128.39V217.11Z"></path><path class="cls-7" d="M301.82,110.09,239.25,179.2H277l54.59-60.42,1.62-11H307A7,7,0,0,0,301.82,110.09Z"></path><path class="cls-2" d="M277,180H239.24a.75.75,0,0,1-.55-1.26l62.57-69.11A7.76,7.76,0,0,1,307,107H333.2a.74.74,0,0,1,.74.85l-1.62,11a.73.73,0,0,1-.18.4L277.55,179.7A.77.77,0,0,1,277,180Zm-36.05-1.5h35.72l54.21-60,1.46-9.91H307a6.23,6.23,0,0,0-4.63,2h0Zm60.88-68.36h0Z"></path><path class="cls-4" d="M332.32,107.79l-1.64,11.31-54.57,60.1H265.82l44.9-49.68A48.5,48.5,0,0,0,322,107.79h10.3Z"></path><path class="cls-7" d="M369.57,144.15a36.36,36.36,0,0,1-36.37,36.37H303.9a36.34,36.34,0,0,0,36.37-36.37c0-20.08-12.7-36.36-32.79-36.36H333.2A36.37,36.37,0,0,1,369.57,144.15Z"></path><path class="cls-2" d="M333.2,181.27H303.9a.75.75,0,0,1,0-1.5,35.59,35.59,0,0,0,35.62-35.62c0-20.63-13.47-35.61-32-35.61a.75.75,0,0,1,0-1.5H333.2a37.12,37.12,0,1,1,0,74.23Zm-18.79-1.5H333.2a35.62,35.62,0,1,0,0-71.23H317.53c14.07,4.39,23.49,18,23.49,35.61a37.13,37.13,0,0,1-26.61,35.62Z"></path><path class="cls-4" d="M370,143.33a36.36,36.36,0,0,1-36.37,36.37h-9.87a36.37,36.37,0,0,0,0-72.74h9.87A36.38,36.38,0,0,1,370,143.33Z"></path><path class="cls-7" d="M231.6,110.09l62.58,69.11H256.43l-53.38-59.07-2.83-12.34h26.19A7,7,0,0,1,231.6,110.09Z"></path><path class="cls-2" d="M294.18,180H256.43a.73.73,0,0,1-.55-.25l-53.39-59.07a.8.8,0,0,1-.17-.33L199.49,108a.76.76,0,0,1,.15-.63.74.74,0,0,1,.58-.28h26.19a7.76,7.76,0,0,1,5.75,2.54l62.57,69.11a.75.75,0,0,1-.55,1.26Zm-37.41-1.5h35.72l-61.44-67.86h0a6.26,6.26,0,0,0-4.64-2H201.17l2.57,11.23Z"></path><path class="cls-4" d="M268.13,179.2H257.67L203.49,120l-2-12.21h10.48l.37,1.63a42.18,42.18,0,0,0,9.82,18.86Z"></path><path class="cls-7" d="M163.86,144.15a36.34,36.34,0,0,0,36.36,36.37h29.3a36.36,36.36,0,0,1-36.37-36.37c0-20.08,14-36.36,34-36.36h-27A36.36,36.36,0,0,0,163.86,144.15Z"></path><path class="cls-2" d="M229.52,181.27h-29.3a37.12,37.12,0,0,1,0-74.23h27a.75.75,0,0,1,0,1.5c-19,0-33.3,15.31-33.3,35.61a35.61,35.61,0,0,0,35.62,35.62.75.75,0,0,1,0,1.5Zm-29.3-72.73a35.62,35.62,0,1,0,0,71.23H219a37.16,37.16,0,0,1-26.61-35.62c0-17.33,10-31.18,24.58-35.61Z"></path><path class="cls-4" d="M202.88,169.88a36.27,36.27,0,0,0,25.72,10.65h-9.25a36.37,36.37,0,0,1,0-72.74h9.25a36.37,36.37,0,0,0-25.72,62.09Z"></path><path class="cls-5" d="M118.23,178.34H283.8a0,0,0,0,1,0,0v41.79a0,0,0,0,1,0,0H118.23a7,7,0,0,1-7-7V185.34A7,7,0,0,1,118.23,178.34Z"></path><path class="cls-2" d="M283.8,220.88H118.23a7.76,7.76,0,0,1-7.75-7.75V185.34a7.75,7.75,0,0,1,7.75-7.75H283.8a.75.75,0,0,1,.75.75v41.79A.76.76,0,0,1,283.8,220.88ZM118.23,179.09a6.25,6.25,0,0,0-6.25,6.25v27.79a6.25,6.25,0,0,0,6.25,6.25H283.05V179.09Z"></path><path class="cls-6" d="M432.46,185.57V212.9a7.22,7.22,0,0,1-7.22,7.23H283.34V178.34h141.9A7.22,7.22,0,0,1,432.46,185.57Z"></path><path class="cls-2" d="M425.24,220.88H283.34a.76.76,0,0,1-.75-.75V178.34a.75.75,0,0,1,.75-.75h141.9a8,8,0,0,1,8,8V212.9A8,8,0,0,1,425.24,220.88Zm-141.15-1.5H425.24a6.48,6.48,0,0,0,6.47-6.48V185.57a6.48,6.48,0,0,0-6.47-6.48H284.09Z"></path><rect class="cls-7" x="343.03" y="178.45" width="31.76" height="41.29"></rect><path class="cls-2" d="M374.78,220.49H343a.75.75,0,0,1-.75-.75V178.45a.74.74,0,0,1,.75-.75h31.75a.74.74,0,0,1,.75.75v41.29A.75.75,0,0,1,374.78,220.49Zm-31-1.5H374V179.2H343.78Z"></path><rect class="cls-7" x="169.83" y="178.3" width="31.76" height="41.73"></rect><path class="cls-2" d="M201.59,220.78H169.83a.75.75,0,0,1-.75-.75V178.3a.74.74,0,0,1,.75-.75h31.76a.75.75,0,0,1,.75.75V220A.76.76,0,0,1,201.59,220.78Zm-31-1.5h30.26V179.05H170.58Z"></path><path class="cls-4" d="M432.46,185.57V212.9a7.22,7.22,0,0,1-7.22,7.23h-2.06V178.34h2.06A7.22,7.22,0,0,1,432.46,185.57Z"></path><polygon class="cls-4" points="273.57 179.2 273.57 331.5 272.39 330.39 266.45 324.81 255.97 314.96 239.86 331.5 239.86 179.2 273.57 179.2"></polygon><path class="cls-1" d="M393,386.71H373a.75.75,0,0,1,0-1.5h20a6.49,6.49,0,0,0,6.48-6.48V350.54a.75.75,0,1,1,1.5,0v28.19A8,8,0,0,1,393,386.71Z"></path><path class="cls-1" d="M400.33,341.22a.76.76,0,0,1-.75-.75V316.71a.75.75,0,0,1,1.5,0v23.76A.75.75,0,0,1,400.33,341.22Z"></path><path class="cls-1" d="M352.81,365.44a.76.76,0,0,1-.75-.75V288.38a.75.75,0,0,1,1.5,0v76.31A.75.75,0,0,1,352.81,365.44Z"></path><path class="cls-1" d="M368.35,206.88a.74.74,0,0,1-.75-.75v-16a.75.75,0,0,1,1.5,0v16A.75.75,0,0,1,368.35,206.88Z"></path><path class="cls-1" d="M193.8,206.88a.75.75,0,0,1-.75-.75v-16a.75.75,0,0,1,1.5,0v16A.75.75,0,0,1,193.8,206.88Z"></path><polygon class="cls-4" points="266.33 177.35 266.33 318.48 260.39 312.91 260.39 177.35 266.33 177.35"></polygon><path class="cls-1" d="M422.79,193.92a.75.75,0,0,1-.75-.75v-2.66a6.48,6.48,0,0,0-6.47-6.48h-6.2a.75.75,0,0,1,0-1.5h6.2a8,8,0,0,1,8,8v2.66A.74.74,0,0,1,422.79,193.92Z"></path><path class="cls-1" d="M354.15,164.33a.86.86,0,0,1-.38-.1.75.75,0,0,1-.27-1c12.79-22.18,0-39.24-.17-39.41a.75.75,0,0,1,1.19-.91c.14.17,13.57,18,.28,41.07A.76.76,0,0,1,354.15,164.33Z"></path><path class="cls-1" d="M186.09,158.75a.73.73,0,0,1-.66-.4c-8.27-15.64.79-31.48.89-31.64a.74.74,0,0,1,1-.27.75.75,0,0,1,.27,1c-.09.15-8.72,15.29-.86,30.18a.75.75,0,0,1-.31,1A.85.85,0,0,1,186.09,158.75Z"></path><polygon class="cls-7" points="267.19 178.31 267.19 319.6 266 318.48 260.06 312.91 249.58 303.06 233.47 319.6 233.47 178.31 267.19 178.31"></polygon><path class="cls-2" d="M233.47,320.35a.67.67,0,0,1-.28-.06.74.74,0,0,1-.47-.69V178.31a.75.75,0,0,1,.75-.75h33.71a.74.74,0,0,1,.75.75V319.6a.74.74,0,0,1-.45.69.76.76,0,0,1-.81-.14l-17.07-16-15.59,16A.76.76,0,0,1,233.47,320.35Zm16.11-18a.72.72,0,0,1,.51.2l16.34,15.36V179.06H234.22V317.75L249,302.53A.75.75,0,0,1,249.58,302.31Z"></path><polygon class="cls-4" points="352.74 178.39 352.74 250.69 351.56 249.58 345.62 244 335.14 234.15 319.03 250.69 319.03 178.39 352.74 178.39"></polygon><polygon class="cls-7" points="346.35 178.5 346.35 239.79 345.17 238.67 339.23 233.1 328.75 223.25 312.64 239.79 312.64 178.5 346.35 178.5"></polygon><path class="cls-2" d="M312.64,240.54a.67.67,0,0,1-.28-.06.74.74,0,0,1-.47-.69V178.5a.74.74,0,0,1,.75-.75h33.71a.74.74,0,0,1,.75.75v61.29a.74.74,0,0,1-.45.69.76.76,0,0,1-.81-.14l-17.07-16-15.59,16A.76.76,0,0,1,312.64,240.54Zm16.11-18a.72.72,0,0,1,.51.2l16.34,15.36V179.25H313.39v58.69l14.82-15.22A.75.75,0,0,1,328.75,222.5Z"></path><path class="cls-1" d="M259.41,261.29a.76.76,0,0,1-.75-.75V222.32a.75.75,0,0,1,1.5,0v38.22A.75.75,0,0,1,259.41,261.29Z"></path><path class="cls-1" d="M273.9,383.06a.76.76,0,0,1-.75-.75V349.44a.75.75,0,1,1,1.5,0v32.87A.75.75,0,0,1,273.9,383.06Z"></path><path class="cls-1" d="M340.33,223.1a.74.74,0,0,1-.75-.75v-16a.75.75,0,0,1,1.5,0v16A.75.75,0,0,1,340.33,223.1Z"></path><path class="cls-1" d="M210.53,369.87H209v-6.18a.75.75,0,0,1,1.5,0Z"></path><path class="cls-1" d="M209.78,355.35a.75.75,0,0,1-.75-.75v-26a.75.75,0,0,1,1.5,0v26A.74.74,0,0,1,209.78,355.35Z"></path><rect class="cls-2" x="447" y="284.98" width="1.5" height="115.89"></rect><rect class="cls-2" x="90.21" y="314.25" width="1.5" height="85.62"></rect></svg>