<svg xmlns="http://www.w3.org/2000/svg" id="Layer_1" width="400" height="400" data-name="Layer 1" viewBox="0 0 550 500"><defs><style>.cls-1{fill:#24071d}.cls-2{fill:#d8ffff}.cls-3{fill:#fff}.cls-4{fill:#680000;opacity:.26}.cls-5{fill:#4cc9f0}.cls-6{fill:#3c4e9f}.cls-7{fill:#4361ee}.cls-8{fill:#3a0ca3}</style></defs><path d="M448.44,235a.75.75,0,0,1-.75-.75c0-2.64-.07-5.32-.2-8a.75.75,0,0,1,1.5-.07c.13,2.67.2,5.37.2,8A.76.76,0,0,1,448.44,235Zm-315-7.2h0a.75.75,0,0,1-.71-.78c.12-2.67.31-5.37.56-8a.75.75,0,1,1,1.49.15c-.25,2.62-.43,5.29-.55,7.94A.75.75,0,0,1,133.47,227.79ZM447.64,219a.76.76,0,0,1-.75-.67c-.26-2.63-.6-5.28-1-7.9a.75.75,0,0,1,1.49-.22c.4,2.64.74,5.32,1,8a.74.74,0,0,1-.67.82ZM135,211.88h-.11a.75.75,0,0,1-.63-.85c.39-2.64.85-5.31,1.37-7.92a.75.75,0,1,1,1.47.3c-.52,2.58-1,5.22-1.36,7.84A.74.74,0,0,1,135,211.88Zm310.24-8.66a.75.75,0,0,1-.73-.6c-.53-2.6-1.14-5.2-1.8-7.76a.75.75,0,1,1,1.45-.37c.67,2.57,1.28,5.21,1.82,7.83a.75.75,0,0,1-.59.88Zm-307.11-7-.19,0a.75.75,0,0,1-.54-.91c.65-2.59,1.38-5.19,2.17-7.74A.75.75,0,1,1,141,188c-.78,2.53-1.5,5.11-2.15,7.66A.75.75,0,0,1,138.12,196.2Zm303.11-8.46a.76.76,0,0,1-.72-.53c-.79-2.52-1.66-5.06-2.58-7.54a.75.75,0,0,1,.44-1,.76.76,0,0,1,1,.44c.93,2.51,1.8,5.07,2.61,7.62a.75.75,0,0,1-.5.94A.57.57,0,0,1,441.23,187.74Zm-298.4-6.82a.78.78,0,0,1-.26,0,.76.76,0,0,1-.45-1c.92-2.5,1.91-5,2.95-7.45a.75.75,0,1,1,1.38.58c-1,2.43-2,4.91-2.92,7.39A.75.75,0,0,1,142.83,180.92Zm292.82-8.2a.76.76,0,0,1-.69-.46c-1-2.43-2.17-4.86-3.34-7.24a.75.75,0,0,1,1.35-.66c1.18,2.4,2.31,4.86,3.37,7.31a.75.75,0,0,1-.39,1A.66.66,0,0,1,435.65,172.72Zm-286.59-6.49a.78.78,0,0,1-.33-.07.75.75,0,0,1-.35-1c1.17-2.39,2.41-4.79,3.69-7.13a.75.75,0,0,1,1-.29.74.74,0,0,1,.3,1c-1.28,2.32-2.51,4.69-3.66,7.06A.73.73,0,0,1,149.06,166.23Zm279.52-7.88a.76.76,0,0,1-.66-.38c-1.29-2.31-2.65-4.62-4.06-6.86a.75.75,0,0,1,1.28-.8c1.41,2.27,2.79,4.59,4.09,6.93a.76.76,0,0,1-.29,1A.77.77,0,0,1,428.58,158.35Zm-271.82-6.11a.71.71,0,0,1-.4-.11.75.75,0,0,1-.24-1c1.4-2.26,2.88-4.52,4.39-6.72a.75.75,0,0,1,1.24.85c-1.51,2.18-3,4.42-4.36,6.66A.73.73,0,0,1,156.76,152.24Zm263.32-7.45a.72.72,0,0,1-.61-.32c-1.52-2.17-3.11-4.33-4.73-6.41a.75.75,0,0,1,1.18-.92c1.64,2.1,3.24,4.28,4.77,6.47a.74.74,0,0,1-.18,1A.76.76,0,0,1,420.08,144.79ZM165.83,139.1a.69.69,0,0,1-.45-.16.75.75,0,0,1-.14-1.05c1.62-2.11,3.32-4.22,5-6.24a.75.75,0,0,1,1.06-.09.76.76,0,0,1,.08,1.06c-1.71,2-3.39,4.09-5,6.19A.76.76,0,0,1,165.83,139.1Zm244.43-6.94a.76.76,0,0,1-.57-.26c-1.72-2-3.52-4-5.35-5.9a.75.75,0,1,1,1.09-1c1.84,1.93,3.66,3.93,5.4,5.95a.75.75,0,0,1-.57,1.24ZM176.2,126.93a.79.79,0,0,1-.52-.2.75.75,0,0,1,0-1.06c1.83-1.94,3.73-3.86,5.66-5.71a.75.75,0,1,1,1,1.08c-1.91,1.83-3.8,3.73-5.61,5.65A.71.71,0,0,1,176.2,126.93Zm223-6.34a.75.75,0,0,1-.52-.21c-1.91-1.81-3.9-3.6-5.91-5.32a.75.75,0,0,1,1-1.14c2,1.74,4,3.54,6,5.37a.77.77,0,0,1,0,1.07A.78.78,0,0,1,399.22,120.59Zm-211.48-4.73a.76.76,0,0,1-.57-.26.74.74,0,0,1,.08-1c2-1.75,4.1-3.47,6.2-5.11a.75.75,0,1,1,.93,1.18c-2.09,1.63-4.15,3.33-6.15,5.06A.76.76,0,0,1,187.74,115.86Zm199.34-5.67a.79.79,0,0,1-.46-.15c-2.09-1.62-4.25-3.2-6.42-4.7a.76.76,0,0,1-.19-1,.75.75,0,0,1,1.05-.18c2.18,1.51,4.36,3.11,6.48,4.74a.75.75,0,0,1-.46,1.34ZM200.34,106a.75.75,0,0,1-.61-.32.74.74,0,0,1,.18-1c2.18-1.54,4.43-3,6.7-4.46a.75.75,0,0,1,1,.23.76.76,0,0,1-.24,1c-2.23,1.41-4.47,2.89-6.63,4.41A.69.69,0,0,1,200.34,106ZM374,101.08a.7.7,0,0,1-.39-.11c-2.24-1.39-4.55-2.75-6.86-4a.75.75,0,0,1,.73-1.32c2.33,1.29,4.66,2.66,6.92,4.07a.75.75,0,0,1-.4,1.38Zm-160.06-3.6a.75.75,0,0,1-.37-1.4c2.33-1.31,4.72-2.57,7.11-3.76a.75.75,0,1,1,.67,1.34c-2.37,1.18-4.74,2.43-7.05,3.72A.68.68,0,0,1,213.89,97.48ZM360,93.35a.71.71,0,0,1-.32-.07c-2.37-1.16-4.8-2.28-7.23-3.31a.75.75,0,0,1,.59-1.38c2.45,1,4.9,2.17,7.29,3.34a.75.75,0,0,1-.33,1.42Zm-131.75-3a.75.75,0,0,1-.3-1.44c2.45-1.06,5-2.08,7.47-3a.75.75,0,0,1,.52,1.41c-2.48.93-5,1.93-7.39,3A.66.66,0,0,1,228.23,90.37Zm117.08-3.29a.82.82,0,0,1-.26,0c-2.48-.92-5-1.78-7.53-2.56a.74.74,0,0,1-.49-.94.73.73,0,0,1,.93-.49c2.55.79,5.11,1.66,7.61,2.58a.75.75,0,0,1-.26,1.45ZM243.24,84.75a.75.75,0,0,1-.23-1.46c2.54-.81,5.14-1.56,7.72-2.23a.75.75,0,0,1,.92.53.76.76,0,0,1-.54.92c-2.56.67-5.13,1.41-7.65,2.21A.83.83,0,0,1,243.24,84.75Zm86.81-2.42a.62.62,0,0,1-.19,0c-2.56-.66-5.17-1.25-7.76-1.78a.75.75,0,0,1,.3-1.47c2.61.53,5.25,1.13,7.83,1.8a.75.75,0,0,1-.18,1.47ZM258.7,80.71a.75.75,0,0,1-.73-.6.77.77,0,0,1,.58-.89c2.61-.54,5.27-1,7.91-1.43a.75.75,0,1,1,.23,1.49c-2.61.4-5.25.88-7.83,1.41Zm55.68-1.54h-.11c-2.61-.39-5.27-.72-7.9-1a.75.75,0,0,1,.14-1.49c2.66.26,5.34.59,8,1a.75.75,0,0,1-.11,1.5Zm-39.88-.91a.74.74,0,0,1-.74-.67.75.75,0,0,1,.67-.82c2.65-.28,5.34-.49,8-.63a.79.79,0,0,1,.79.71.75.75,0,0,1-.71.79c-2.64.14-5.31.35-7.94.62Zm24-.66h0c-2.5-.12-5-.18-7.56-.18h-.4a.75.75,0,1,1,0-1.5h.4c2.54,0,5.11.06,7.63.18a.75.75,0,0,1,0,1.5Z" class="cls-1"/><path d="M57.46,136.83h0v0Z" class="cls-2"/><path d="M57.46,136.83h0v0Z" class="cls-2"/><path d="M273.91,139.07s0-.46,0-.52v.52Z" class="cls-2"/><path d="M273.91,139.07s0-.46,0-.52v.52Z" class="cls-2"/><path d="M273.76,141.26c-.08,6.07-.31,25.47-1,84.11-1.06,89.18-91,133.32-108.66,141a2.93,2.93,0,0,1-2.44-.05l-1.73-.85C138.85,355,55.54,309.82,56.56,223.13c.7-58.63.93-78,1-84.11a2.63,2.63,0,0,1,2.18-2.51c41.18-8.56,79.68-27.9,104.73-51.66a2.92,2.92,0,0,1,4,0c22.74,22.56,56.88,41.52,94.46,51.64,2.86.78,5.76,1.5,8.66,2.17A2.63,2.63,0,0,1,273.76,141.26Z" class="cls-3"/><path d="M162.93,367.38a3.65,3.65,0,0,1-1.61-.37l-1.72-.85c-13-6.44-38.1-20.55-60.17-42.73-29.38-29.52-44.05-63.27-43.62-100.3l.62-52c.24-19.68.34-28.41.39-32.13a3.35,3.35,0,0,1,2.79-3.23C99.78,127.42,138.8,108.18,164,84.3a3.67,3.67,0,0,1,5.07.06c23,22.77,57.26,41.52,94.12,51.45,2.73.74,5.63,1.46,8.64,2.16a3.38,3.38,0,0,1,2.71,3.29h0c-.07,5.08-.24,19.52-.69,58.51l-.31,25.6c-.45,37.93-16.72,72.11-48.35,101.6a228.71,228.71,0,0,1-60.76,40.09A3.59,3.59,0,0,1,162.93,367.38Zm3.54-282.57a2.12,2.12,0,0,0-1.47.58c-25.37,24.06-64.65,43.44-105.09,51.86A1.87,1.87,0,0,0,58.32,139c0,3.72-.15,12.45-.39,32.13l-.62,52c-.43,36.62,14.1,70,43.18,99.23,21.92,22,46.86,36.05,59.78,42.45.63.31,1.2.6,1.71.84a2.18,2.18,0,0,0,1.82,0,227,227,0,0,0,60.33-39.81c31.33-29.2,47.44-63,47.88-100.53l.31-25.6c.45-39,.62-53.42.69-58.51a1.88,1.88,0,0,0-1.54-1.82c-3-.7-6-1.43-8.7-2.18-37.11-10-71.66-28.88-94.79-51.82A2.13,2.13,0,0,0,166.47,84.81Z" class="cls-1"/><path d="M273.76,141.26c-.08,6.07-.31,25.47-1,84.11-1.06,89.18-91,133.32-108.66,141a2.93,2.93,0,0,1-2.44-.05l-1.73-.85a257.13,257.13,0,0,0,46-32.73c36.73-33.11,55.61-71.65,56.12-114.55l1-81.68c2.86.78,5.76,1.5,8.66,2.17A2.63,2.63,0,0,1,273.76,141.26Z" class="cls-4"/><path d="M252.33,155.62l-.8,67.79c-.39,31.93-14.44,60.63-41.8,85.28a193.73,193.73,0,0,1-45,30h0a2.93,2.93,0,0,1-2.55,0c-1.73-.87-3.69-1.9-5.86-3.09a192.4,192.4,0,0,1-38.41-27.81c-26.77-25.21-40.15-54.2-39.77-86.13l.8-67.79A2.64,2.64,0,0,1,81,151.34c32.18-7.84,61.52-21.82,83.25-39.6l3.72,0c21.31,18.23,50.3,32.81,82.29,41.31a2.85,2.85,0,0,1,1.5,1A2.47,2.47,0,0,1,252.33,155.62Z" class="cls-5"/><rect width="331.18" height="222.19" x="144.74" y="192.36" class="cls-6" rx="12" transform="translate(70.51 -58.31) rotate(12.1)"/><path d="M439.73,445.3a12.76,12.76,0,0,1-2.67-.29L136.7,380.61a12.78,12.78,0,0,1-9.79-15.14l41.55-193.78a12.8,12.8,0,0,1,15.14-9.8L484,226.29a12.78,12.78,0,0,1,9.79,15.14L452.2,435.22a12.81,12.81,0,0,1-12.47,10.08ZM180.93,163.11a11.3,11.3,0,0,0-11,8.89L128.38,365.79A11.28,11.28,0,0,0,137,379.15l300.35,64.39a11.28,11.28,0,0,0,13.36-8.64l41.55-193.78a11.3,11.3,0,0,0-8.64-13.36l-300.36-64.4A11,11,0,0,0,180.93,163.11Z" class="cls-1"/><rect width="331.17" height="222.19" x="149.14" y="194.91" class="cls-7" rx="13.33"/><path d="M467,417.85H162.47a14.1,14.1,0,0,1-14.08-14.08V208.24a14.1,14.1,0,0,1,14.08-14.08H467a14.09,14.09,0,0,1,14.08,14.08V403.77A14.09,14.09,0,0,1,467,417.85ZM162.47,195.66a12.59,12.59,0,0,0-12.58,12.58V403.77a12.59,12.59,0,0,0,12.58,12.58H467a12.59,12.59,0,0,0,12.58-12.58V208.24A12.59,12.59,0,0,0,467,195.66Z" class="cls-1"/><circle cx="394.07" cy="252.13" r="28.41" class="cls-7"/><path d="M394.07,281.29a29.16,29.16,0,1,1,29.16-29.16A29.19,29.19,0,0,1,394.07,281.29Zm0-56.82a27.66,27.66,0,1,0,27.66,27.66A27.69,27.69,0,0,0,394.07,224.47Z" class="cls-1"/><circle cx="425.32" cy="252.13" r="28.41" class="cls-8"/><path d="M425.32,281.29a29.16,29.16,0,1,1,29.16-29.16A29.19,29.19,0,0,1,425.32,281.29Zm0-56.82A27.66,27.66,0,1,0,453,252.13,27.69,27.69,0,0,0,425.32,224.47Z" class="cls-1"/><rect width="60.38" height="33.56" x="179.19" y="359.83" class="cls-6" rx="7"/><path d="M232.57,394.13H186.19a7.76,7.76,0,0,1-7.75-7.75V366.83a7.76,7.76,0,0,1,7.75-7.75h46.38a7.75,7.75,0,0,1,7.75,7.75v19.55A7.75,7.75,0,0,1,232.57,394.13Zm-46.38-33.55a6.25,6.25,0,0,0-6.25,6.25v19.55a6.25,6.25,0,0,0,6.25,6.25h46.38a6.25,6.25,0,0,0,6.25-6.25V366.83a6.25,6.25,0,0,0-6.25-6.25Z" class="cls-1"/><rect width="128.73" height="32.96" x="178.44" y="239.94" class="cls-3" rx="7"/><path d="M300.17,273.65H185.44a7.76,7.76,0,0,1-7.75-7.75v-19a7.76,7.76,0,0,1,7.75-7.75H300.17a7.76,7.76,0,0,1,7.75,7.75v19A7.76,7.76,0,0,1,300.17,273.65Zm-114.73-33a6.26,6.26,0,0,0-6.25,6.25v19a6.26,6.26,0,0,0,6.25,6.25H300.17a6.25,6.25,0,0,0,6.25-6.25v-19a6.25,6.25,0,0,0-6.25-6.25Z" class="cls-1"/><rect width="95.87" height="20.52" x="178.44" y="289.85" class="cls-6" rx="7"/><rect width="60.38" height="33.56" x="252.21" y="359.83" class="cls-6" rx="7"/><path d="M305.6,394.13H259.21a7.76,7.76,0,0,1-7.75-7.75V366.83a7.76,7.76,0,0,1,7.75-7.75H305.6a7.76,7.76,0,0,1,7.75,7.75v19.55A7.76,7.76,0,0,1,305.6,394.13Zm-46.39-33.55a6.26,6.26,0,0,0-6.25,6.25v19.55a6.26,6.26,0,0,0,6.25,6.25H305.6a6.26,6.26,0,0,0,6.25-6.25V366.83a6.26,6.26,0,0,0-6.25-6.25Z" class="cls-1"/><rect width="60.38" height="33.56" x="325.23" y="359.83" class="cls-6" rx="7"/><path d="M378.62,394.13H332.23a7.76,7.76,0,0,1-7.75-7.75V366.83a7.76,7.76,0,0,1,7.75-7.75h46.39a7.76,7.76,0,0,1,7.75,7.75v19.55A7.76,7.76,0,0,1,378.62,394.13Zm-46.39-33.55a6.26,6.26,0,0,0-6.25,6.25v19.55a6.26,6.26,0,0,0,6.25,6.25h46.39a6.26,6.26,0,0,0,6.25-6.25V366.83a6.26,6.26,0,0,0-6.25-6.25Z" class="cls-1"/><rect width="60.38" height="33.56" x="398.26" y="359.83" class="cls-6" rx="7"/><path d="M451.64,394.13H405.26a7.75,7.75,0,0,1-7.75-7.75V366.83a7.75,7.75,0,0,1,7.75-7.75h46.38a7.76,7.76,0,0,1,7.75,7.75v19.55A7.76,7.76,0,0,1,451.64,394.13Zm-46.38-33.55a6.25,6.25,0,0,0-6.25,6.25v19.55a6.25,6.25,0,0,0,6.25,6.25h46.38a6.25,6.25,0,0,0,6.25-6.25V366.83a6.25,6.25,0,0,0-6.25-6.25Z" class="cls-1"/><path d="M480.31,208.24V403.77A13.37,13.37,0,0,1,467,417.1H434.33l13.45-4.78c10.88-3.86,18.42-19.36,18.44-31,.11-46.67.35-162.85,0-186.38H467A13.37,13.37,0,0,1,480.31,208.24Z" class="cls-4"/><path d="M466.46,313.89a.74.74,0,0,1-.75-.75V249.87a.75.75,0,1,1,1.5,0v63.27A.75.75,0,0,1,466.46,313.89Z" class="cls-5"/><path d="M466.46,356.06a.75.75,0,0,1-.75-.74l-.3-21.79a.76.76,0,0,1,.74-.76h0a.75.75,0,0,1,.75.74l.3,21.79a.76.76,0,0,1-.74.76Z" class="cls-5"/><path d="M353,125.31l-.35-43.88a24.6,24.6,0,0,1,24.41-24.8h.2A24.64,24.64,0,0,1,401.9,81l.34,43.88Zm24.26-67.18h-.18a23.11,23.11,0,0,0-22.93,23.29l.34,42.38,46.21-.37-.33-42.38A23.14,23.14,0,0,0,377.29,58.13Z" class="cls-1"/><rect width="77.72" height="66.36" x="338.76" y="89.96" class="cls-8" rx="5.42" transform="translate(-0.97 3) rotate(-0.45)"/><path d="M344.41,157.34a6.16,6.16,0,0,1-6.17-6.13l-.45-55.51a6.18,6.18,0,0,1,6.13-6.22L410.78,89A6.2,6.2,0,0,1,417,95.07l.44,55.51a6.19,6.19,0,0,1-6.13,6.23l-66.86.53Zm66.42-66.89h0L343.93,91a4.68,4.68,0,0,0-4.64,4.71l.45,55.51a4.62,4.62,0,0,0,1.39,3.3,4.71,4.71,0,0,0,3.32,1.34l66.86-.53h0A4.68,4.68,0,0,0,416,150.6l-.44-55.52A4.68,4.68,0,0,0,410.83,90.45Z" class="cls-1"/><path d="M387,116.29a9.69,9.69,0,1,0-15,8.18l-1.56,12.8,14.08-.12-1.76-12.77A9.67,9.67,0,0,0,387,116.29Z" class="cls-3"/><path d="M369.61,138l1.61-13.19a10.44,10.44,0,1,1,16.56-8.54h0a10.44,10.44,0,0,1-4.19,8.44l1.81,13.17Zm7.74-30.59a8.27,8.27,0,0,0-1.11.07,8.93,8.93,0,0,0-3.8,16.34l.38.26-1.51,12.41,12.38-.1L382,124l.39-.27a8.92,8.92,0,0,0,3.92-7.46h0a9,9,0,0,0-3-6.64A8.8,8.8,0,0,0,377.35,107.43Z" class="cls-1"/><path d="M401.61,151.37h-9.44a.75.75,0,1,1,0-1.5h9.44a8,8,0,0,0,8-8v-12a.75.75,0,0,1,1.5,0v12A9.47,9.47,0,0,1,401.61,151.37Z" class="cls-5"/><path d="M410.11,124.38a.76.76,0,0,1-.75-.75v-8.48a.75.75,0,1,1,1.5,0v8.48A.75.75,0,0,1,410.11,124.38Z" class="cls-5"/><path d="M440.31,266.89a.75.75,0,0,1-.33-.07.76.76,0,0,1-.35-1c10.07-20.56-5-30.13-5.65-30.52a.75.75,0,0,1-.24-1,.73.73,0,0,1,1-.25c.18.1,16.9,10.65,6.22,32.46A.74.74,0,0,1,440.31,266.89Z" class="cls-5"/><path d="M449.29,386.88a.76.76,0,0,1-.75-.75V367.69a.75.75,0,0,1,1.5,0v18.44A.75.75,0,0,1,449.29,386.88Z" class="cls-5"/><path d="M376.69,386.88a.75.75,0,0,1-.75-.75V367.69a.75.75,0,0,1,1.5,0v18.44A.76.76,0,0,1,376.69,386.88Z" class="cls-5"/><path d="M304.08,386.88a.76.76,0,0,1-.75-.75V367.69a.75.75,0,0,1,1.5,0v18.44A.76.76,0,0,1,304.08,386.88Z" class="cls-5"/><path d="M231.48,386.88a.75.75,0,0,1-.75-.75V367.69a.75.75,0,0,1,1.5,0v18.44A.76.76,0,0,1,231.48,386.88Z" class="cls-5"/></svg>