<svg xmlns="http://www.w3.org/2000/svg" xmlns:xlink="http://www.w3.org/1999/xlink" id="Capa_1" x="0" y="0" version="1.1" viewBox="0 0 450 450" xml:space="preserve" style="enable-background:new 0 0 450 450"><style type="text/css">.st0{fill:#3a0ca3}</style><polygon points="26.7 424.9 26.7 380.4 291.1 380.4 291.1 158.2 158.9 158.2 158.9 247.1 114.8 247.1 114.8 202.7 114.8 113.8 291.1 113.8 335.2 113.8 335.2 202.7 335.2 380.4 335.2 424.9" class="st0"/><polygon points="26.7 24.9 423.3 24.9 423.3 380.4 423.3 424.9 379.3 424.9 379.3 380.4 379.3 69.3 70.7 69.3 70.7 291.5 203 291.5 203 202.7 247 202.7 247 291.5 247 336 247 336 70.7 336 26.7 336 26.7 291.5" class="st0"/></svg>