<svg id="Capa_1" data-name="Capa 1" xmlns="http://www.w3.org/2000/svg" viewBox="0 0 1047.43 200"><defs><style>.cls-1{fill:#3a0ca3;}</style></defs><polygon class="cls-1" points="0 199.67 0 177.49 132.01 177.49 132.01 66.55 66 66.55 66 110.93 44 110.93 44 88.74 44 44.37 132.01 44.37 154.02 44.37 154.02 88.74 154.02 177.49 154.02 199.67 0 199.67"/><polygon class="cls-1" points="0 0 198.02 0 198.02 177.49 198.02 199.67 176.02 199.67 176.02 177.49 176.02 22.19 22 22.19 22 133.12 88.01 133.12 88.01 88.75 110.01 88.75 110.01 133.12 110.01 155.3 110.01 155.3 22 155.3 0 155.3 0 133.12 0 0"/><path class="cls-1" d="M277,192.16c0,3.38,2.47,4.71,5.52,4.71,3.35,0,4.6-1.66,4.6-3.32a2.62,2.62,0,0,0-1.8-2.71c-1.52-.58-3.5-1-6.49-1.81-3.72-1-4.81-3.29-4.81-5.56,0-4.39,4-6.45,8-6.45,4.54,0,8.35,2.42,8.35,7h-3.81c-.18-2.82-2.07-3.87-4.69-3.87-1.77,0-4,.65-4,2.86,0,1.53,1,2.39,2.59,2.82.34.1,5.15,1.36,6.28,1.69a5.81,5.81,0,0,1,4.24,5.6c0,4.91-4.33,6.88-8.66,6.88-5,0-9-2.4-9.08-7.84Z" transform="translate(-29.47)"/><path class="cls-1" d="M318.85,188.51c0,6.27-3.9,11.49-10.42,11.49S298,194.78,298,188.51,301.91,177,308.43,177,318.85,182.24,318.85,188.51Zm-17,0c0,4.21,1.95,8.36,6.61,8.36s6.61-4.15,6.61-8.36-2-8.36-6.61-8.36-6.64,4.15-6.64,8.36Z" transform="translate(-29.47)"/><path class="cls-1" d="M327.36,177.54h3.81v18.62h11.06v3.32H327.36Z" transform="translate(-29.47)"/><path class="cls-1" d="M349.15,177.54H353v12.78c0,3,.18,6.36,5.12,6.36s5.11-3.41,5.11-6.36V177.54H367v14c0,5.62-3.56,8.42-8.92,8.42s-8.93-2.8-8.93-8.42Z" transform="translate(-29.47)"/><path class="cls-1" d="M391.1,184.51c-.64-2.52-2.26-4.36-5.43-4.36-4.66,0-6.61,4.15-6.61,8.36s1.95,8.36,6.61,8.36c3.38,0,5.24-2.55,5.55-5.75h3.72c-.31,5.25-4,8.88-9.27,8.88-6.52,0-10.42-5.22-10.42-11.49S379.15,177,385.67,177c4.91,0,8.78,2.76,9.23,7.49Z" transform="translate(-29.47)"/><path class="cls-1" d="M403.41,177.54h3.81v21.94h-3.81Z" transform="translate(-29.47)"/><path class="cls-1" d="M436.57,188.51c0,6.27-3.9,11.49-10.42,11.49s-10.42-5.22-10.42-11.49S419.63,177,426.15,177,436.57,182.24,436.57,188.51Zm-17,0c0,4.21,2,8.36,6.62,8.36s6.61-4.15,6.61-8.36-1.95-8.36-6.61-8.36-6.66,4.15-6.66,8.36Z" transform="translate(-29.47)"/><path class="cls-1" d="M445,177.54h4l10,16.16h0V177.54h3.63v21.94h-4l-9.9-16.13h-.09v16.13H445Z" transform="translate(-29.47)"/><path class="cls-1" d="M472.21,177.54h15.66v3.32H476v5.74h11v3.14H476v6.42h12.07v3.32H472.21Z" transform="translate(-29.47)"/><path class="cls-1" d="M498.67,192.16c0,3.38,2.47,4.71,5.52,4.71,3.35,0,4.6-1.66,4.6-3.32a2.62,2.62,0,0,0-1.8-2.71c-1.52-.58-3.5-1-6.49-1.81-3.72-1-4.82-3.29-4.82-5.56,0-4.39,4-6.45,8-6.45,4.54,0,8.35,2.42,8.35,7h-3.81c-.18-2.82-2.07-3.87-4.69-3.87-1.77,0-4,.65-4,2.86,0,1.53,1,2.39,2.59,2.82.33.1,5.15,1.36,6.27,1.69a5.81,5.81,0,0,1,4.24,5.6c0,4.91-4.33,6.88-8.66,6.88-5,0-9-2.4-9.08-7.84Z" transform="translate(-29.47)"/><path class="cls-1" d="M534.64,177.54h9.6c6.22,0,7.41,4.05,7.41,6.79s-1.19,6.76-7.41,6.73h-5.79v8.42h-3.81Zm3.81,10.38H544c1.7,0,3.81-.86,3.81-3.62s-1.74-3.63-3.75-3.63h-5.64Z" transform="translate(-29.47)"/><path class="cls-1" d="M564.08,177.54h4l8.38,21.94h-4.09l-2-5.81H561.7l-2,5.81h-3.93Zm-1.35,13.21h6.65l-3.26-9.43H566Z" transform="translate(-29.47)"/><path class="cls-1" d="M583.74,177.54h10.39c4.75,0,7.19,2.21,7.19,5.93,0,4.21-2.89,5.28-3.59,5.53v.06c1.31.18,3.23,1.17,3.23,4.64,0,2.55.36,4.89,1.18,5.78h-4.08a6.19,6.19,0,0,1-.58-3.23c0-4-.82-5.81-4.32-5.81h-5.61v9h-3.81Zm3.81,10h6.24c2.41,0,3.72-1.19,3.72-3.5,0-2.79-1.8-3.35-3.78-3.35h-6.18Z" transform="translate(-29.47)"/><path class="cls-1" d="M617,177.54h4l8.38,21.94H625.3l-2-5.81H614.6l-2,5.81h-3.93Zm-1.35,13.21h6.65l-3.3-9.43h-.09Z" transform="translate(-29.47)"/><path class="cls-1" d="M650,177.54h3.81v12.78c0,3,.18,6.36,5.12,6.36s5.12-3.41,5.12-6.36V177.54h3.81v14c0,5.62-3.57,8.42-8.93,8.42s-8.93-2.8-8.93-8.42Z" transform="translate(-29.47)"/><path class="cls-1" d="M677.18,177.54h4l9.94,16.16h.06V177.54h3.63v21.94h-4l-9.9-16.13h-.09v16.13h-3.63Z" transform="translate(-29.47)"/><path class="cls-1" d="M710.38,177.54h4l8.38,21.94h-4.08l-2-5.81H708l-2,5.81h-4ZM709,190.75h6.64l-3.26-9.43h-.09Z" transform="translate(-29.47)"/><path class="cls-1" d="M743.55,177.54h5.36l6,17.18H755l5.85-17.18h5.31v21.94H762.5V182.55h-.06l-6,16.93H753.3l-6-16.93h-.06v16.93h-3.62Z" transform="translate(-29.47)"/><path class="cls-1" d="M775.73,177.54h15.66v3.32H779.54v5.74h11v3.14h-11v6.42h12.07v3.32H775.73Z" transform="translate(-29.47)"/><path class="cls-1" d="M812,192.41c0,3.81-.91,7.59-7.16,7.59-4.6,0-6.49-3-6.49-7v-1.2h3.81v1.13c0,2.49.67,3.94,3,3.94s3-1.51,3-4.24V177.54H812Z" transform="translate(-29.47)"/><path class="cls-1" d="M841.23,188.51c0,6.27-3.9,11.49-10.42,11.49s-10.42-5.22-10.42-11.49S824.29,177,830.81,177,841.23,182.24,841.23,188.51Zm-17,0c0,4.21,1.95,8.36,6.61,8.36s6.61-4.15,6.61-8.36-2-8.36-6.61-8.36-6.64,4.15-6.64,8.36Z" transform="translate(-29.47)"/><path class="cls-1" d="M849.74,177.54h10.39c4.76,0,7.19,2.21,7.19,5.93,0,4.21-2.89,5.28-3.59,5.53v.06c1.31.18,3.23,1.17,3.23,4.64,0,2.55.36,4.89,1.19,5.78h-4.09a6.19,6.19,0,0,1-.58-3.23c0-4-.82-5.81-4.32-5.81h-5.61v9h-3.81Zm3.81,10h6.25c2.41,0,3.72-1.19,3.72-3.5,0-2.79-1.8-3.35-3.78-3.35h-6.19Z" transform="translate(-29.47)"/><path class="cls-1" d="M892.42,192.16c0,3.38,2.47,4.71,5.51,4.71,3.36,0,4.6-1.66,4.6-3.32a2.61,2.61,0,0,0-1.79-2.71c-1.53-.58-3.51-1-6.49-1.81-3.72-1-4.82-3.29-4.82-5.56,0-4.39,4-6.45,8-6.45,4.54,0,8.35,2.42,8.35,7H902c-.18-2.82-2.07-3.87-4.69-3.87-1.76,0-4,.65-4,2.86,0,1.53,1,2.39,2.59,2.82.34.1,5.15,1.36,6.28,1.69a5.81,5.81,0,0,1,4.23,5.6c0,4.91-4.32,6.88-8.65,6.88-5,0-9-2.4-9.08-7.84Z" transform="translate(-29.47)"/><path class="cls-1" d="M934.29,188.51c0,6.27-3.9,11.49-10.42,11.49s-10.42-5.22-10.42-11.49S917.35,177,923.87,177,934.29,182.24,934.29,188.51Zm-17,0c0,4.21,2,8.36,6.62,8.36s6.61-4.15,6.61-8.36-2-8.36-6.61-8.36-6.66,4.15-6.66,8.36Z" transform="translate(-29.47)"/><path class="cls-1" d="M957.5,184.51c-.64-2.52-2.25-4.36-5.42-4.36-4.66,0-6.61,4.15-6.61,8.36s1.95,8.36,6.61,8.36c3.38,0,5.24-2.55,5.55-5.75h3.71c-.3,5.25-4,8.88-9.26,8.88-6.52,0-10.42-5.22-10.42-11.49S945.56,177,952.08,177c4.91,0,8.78,2.76,9.23,7.49Z" transform="translate(-29.47)"/><path class="cls-1" d="M969.82,177.54h3.81v21.94h-3.81Z" transform="translate(-29.47)"/><path class="cls-1" d="M983.21,177.54h15.66v3.32H987v5.74h11v3.14H987v6.42h12.06v3.32H983.19Z" transform="translate(-29.47)"/><path class="cls-1" d="M1007.44,177.54h9c6.7,0,9.6,4.92,9.6,11s-2.9,11-9.6,11h-9Zm3.81,18.8H1015c6,0,7.26-3.44,7.26-7.83s-1.28-7.84-7.26-7.84h-3.74Z" transform="translate(-29.47)"/><path class="cls-1" d="M1039.1,177.54h4.05l8.39,21.94h-4.09l-2-5.81h-8.69l-2,5.81h-3.93Zm-1.34,13.21h6.64l-3.25-9.43h-.1Z" transform="translate(-29.47)"/><path class="cls-1" d="M1057.77,177.54h9c6.71,0,9.6,4.92,9.6,11s-2.89,11-9.6,11h-9Zm3.81,18.8h3.75c6,0,7.25-3.44,7.25-7.83s-1.27-7.84-7.25-7.84h-3.75Z" transform="translate(-29.47)"/><path class="cls-1" d="M315.54,44.37H336L378.4,155.3H357.76l-10.33-29.36H303.52L293.2,155.3H273.32Zm-6.78,66.81h33.59l-16.49-47.7h-.46Z" transform="translate(-29.47)"/><path class="cls-1" d="M364.51,44.37h89.05V61.15h-35V155.3H399.33V61.15H364.51Z" transform="translate(-29.47)"/><path class="cls-1" d="M474.2,44.37h19.26V88.49h50.08V44.37H562.8V155.3H543.54v-50H493.46v50H474.2Z" transform="translate(-29.47)"/><path class="cls-1" d="M584.93,44.37h79.2V61.15H604.19V90.2h55.47v15.85H604.19v32.47h61V155.3H584.93Z" transform="translate(-29.47)"/><path class="cls-1" d="M687.34,44.37h20.33l50.23,81.72h.31V44.37h18.34V155.3H756.21L706.13,73.74h-.46V155.3H687.34Z" transform="translate(-29.47)"/><path class="cls-1" d="M798.68,44.37h45.61c33.89,0,48.53,24.86,48.53,55.47s-14.64,55.46-48.53,55.46H798.68Zm19.26,95.08h18.95c30.2,0,36.67-17.4,36.67-39.61s-6.47-39.62-36.67-39.62H817.94Z" transform="translate(-29.47)"/><path class="cls-1" d="M938.85,44.37h20.49l42.37,110.93H981.07l-10.32-29.36H926.83L916.51,155.3H896.63Zm-6.78,66.81h33.59l-16.49-47.7h-.46Z" transform="translate(-29.47)"/><path class="cls-1" d="M987.85,44.37h89.05V61.15h-35V155.3h-19.26V61.15H987.82Z" transform="translate(-29.47)"/></svg>