<?xml version="1.0" encoding="utf-8"?>
<!-- Generator: Adobe Illustrator 25.0.1, SVG Export Plug-In . SVG Version: 6.00 Build 0)  -->
<svg version="1.1" id="Capa_1" xmlns="http://www.w3.org/2000/svg" xmlns:xlink="http://www.w3.org/1999/xlink" x="0px" y="0px"
	 viewBox="0 0 1200 1200" style="enable-background:new 0 0 1200 1200;" xml:space="preserve">
<style type="text/css">
	.st0{fill:#F8DFEE;stroke:#A75374;stroke-width:2;stroke-miterlimit:10;}
	.st1{opacity:7.000000e-02;enable-background:new    ;}
	.st2{fill:#7C298D;}
	.st3{opacity:0.22;}
	.st4{fill:#FFFFFF;}
	.st5{fill:url(#SVGID_1_);}
	.st6{opacity:0.22;fill:#FFFFFF;enable-background:new    ;}
</style>
<circle class="st0" cx="585.3" cy="679.8" r="519"/>
<g>
	<ellipse class="st1" cx="585.3" cy="1065.8" rx="266.2" ry="39.9"/>
	<g>
		<g>
			<path class="st2" d="M1057.7,420.3c-6.7,46.6-13.3,86.5-46.6,166.3c-33.3,79.8-73.2,159.7-119.8,239.5
				c-53.2,86.5-113.1,166.3-199.6,206.3c-59.9,33.3-133.1,39.9-199.6,26.6c-79.8-20-153-66.5-193-146.4
				c-26.6-53.2-33.3-113.1-13.3-173c6.7-20,20-46.6,33.3-66.5c59.9-79.8,173-106.5,252.8-166.3c53.2-39.9,99.8-99.8,139.7-146.4
				c86.5-99.8,113.1-119.8,153-133.1c6.7,0,113.1-33.3,166.3,26.6c13.3,13.3,20,33.3,26.6,53.2
				C1064.4,353.8,1057.7,387.1,1057.7,420.3z"/>
			<path class="st1" d="M1057.7,420.3c-6.7,46.6-13.3,86.5-46.6,166.3c-33.3,79.8-73.2,159.7-119.8,239.5
				c-53.2,86.5-113.1,166.3-199.6,206.3c-59.9,33.3-133.1,39.9-199.6,26.6c-79.8-20-153-66.5-193-146.4
				c-26.6-53.2-33.3-113.1-13.3-173c6.7,0,13.3,6.7,13.3,13.3c6.7,20,13.3,39.9,20,59.9C352.4,879.5,419,932.7,498.8,946
				c20,6.7,39.9,6.7,59.9,6.7c46.6,0,86.5-13.3,126.4-26.6c86.5-46.6,146.4-133.1,193-199.6c46.6-73.2,86.5-153,119.8-232.9
				c33.3-79.8,46.6-119.8,46.6-159.7c0-6.7,6.7-13.3,13.3-13.3C1064.4,353.8,1057.7,387.1,1057.7,420.3z"/>
			<g class="st3">
				<path class="st4" d="M678.5,460.3c6.7-6.7,13.3-13.3,13.3-20c0,0,0,0,6.7-6.7c0,0,0,0,6.7-6.7c0,0,0,0,6.7-6.7c0,0,0,0,6.7-6.7
					c0,0,0,0,6.7-6.7c0,0,0,0,6.7-6.7l0,0l0,0c0,0,0,0,6.7-6.7c0,0,0,0,6.7-6.7c0,0,0,0,6.7-6.7c0,0,0,0,6.7-6.7l0,0l0,0l6.7-6.7
					l6.7-6.7l6.7-6.7c0,0,6.7,0,6.7-6.7c0,0,0,0,6.7,0l0,0h6.7c6.7,0,6.7,0,13.3,0c6.7,0,6.7,0,13.3,6.7c0,0,6.7,0,6.7,6.7l0,0
					c0,0,0,0,0,6.7c0,0,0,6.7,6.7,6.7v6.7c0,6.7,0,6.7,0,13.3c0,6.7,0,6.7,0,13.3l0,0l0,0v6.7v6.7v6.7v6.7c0,0,0,0,0,6.7
					c0,0,0,0,0,6.7v6.7v6.7c0,0,0,6.7-6.7,6.7c0,0,0,6.7-6.7,6.7c0,0,0,6.7-6.7,6.7c0,0,0,6.7-6.7,6.7c-6.7,13.3-13.3,20-20,26.6
					c-6.7,6.7-20,20-26.6,26.6l-6.7,6.7c0,0-6.7,0-6.7,6.7c0,0-6.7,0-6.7,6.7c0,0-6.7,0-6.7,6.7c0,0-6.7,0-6.7,6.7H725
					c0,0,0,0-6.7,0c0,0,0,0-6.7,0h-6.7h-6.7h-6.7h-6.7l0,0l0,0c-6.7,0-6.7,0-13.3,0c-6.7,0-6.7,0-13.3,0c-6.7,0-6.7,0-6.7,0h-6.7
					c0,0,0,0-6.7,0l0,0c0,0-6.7,0-6.7-6.7c0-6.7-6.7-6.7-6.7-13.3s0-6.7,0-13.3v-6.7c0,0,0,0,0-6.7c0,0,0,0,0-6.7c0,0,0-6.7,6.7-6.7
					c0,0,0-6.7,6.7-6.7l6.7-6.7l6.7-6.7l0,0l0,0c0,0,0,0,0-6.7c0,0,0,0,0-6.7c0,0,0,0,6.7-6.7c0,0,0,0,6.7-6.7l0,0l0,0
					C665.2,466.9,665.2,466.9,678.5,460.3c-6.7,0-6.7,0,0-6.7c0,0,0,0,6.7-6.7c0,0,0,0,6.7-6.7c0,0,0,0,6.7-6.7c0,0,0,0,6.7-6.7
					C665.2,473.6,671.8,466.9,678.5,460.3z"/>
			</g>
		</g>
		<g>
			
				<linearGradient id="SVGID_1_" gradientUnits="userSpaceOnUse" x1="618.7613" y1="-202.9086" x2="920.3082" y2="-202.9086" gradientTransform="matrix(0.9578 0.2874 -0.2874 0.9578 181.9022 166.6707)">
				<stop  offset="0.3086" style="stop-color:#9CD538"/>
				<stop  offset="1" style="stop-color:#9CD538"/>
			</linearGradient>
			<path class="st5" d="M957.9,147.5c-13.3,6.7-26.6,6.7-59.9,20c-6.7,0-13.3,6.7-20,6.7c-33.3,20-66.5,46.6-79.8,79.8
				c33.3,20,73.2,26.6,106.5,13.3c-13.3,26.6-26.6,46.6-33.3,79.8c0,6.7,0,13.3,0,20c6.7,13.3,26.6,13.3,39.9,6.7
				c33.3-13.3,59.9-33.3,86.5-53.2c-13.3,46.6,13.3,99.8,53.2,119.8c20-26.6,33.3-59.9,39.9-106.5c0-46.6-20-53.2-13.3-113.1
				c0-20,6.7-73.2,26.6-113.1c0,0,13.3-20,20-39.9c6.7-20,13.3-33.3,6.7-39.9c-6.7-6.7-20-13.3-26.6-20c0,0-13.3-6.7-26.6-6.7
				c-20,6.7-20,39.9-46.6,79.8C1017.8,101,991.2,134.2,957.9,147.5z"/>
			<path class="st1" d="M1051.1,433.7c-39.9-20-66.5-73.2-53.2-119.8c-26.6,26.6-53.2,46.6-86.5,59.9c-13.3,6.7-33.3,6.7-39.9-6.7
				c0-6.7,0-13.3,0-20c6.7-26.6,20-53.2,33.3-79.8c-33.3,13.3-73.2,13.3-106.5-6.7c6.7-6.7,13.3-20,20-26.6
				c33.3,6.7,66.5,0,99.8-13.3c6.7,0,13.3-6.7,13.3-6.7c6.7,0,13.3,0,13.3,6.7c0,6.7,0,6.7,0,13.3c-6.7,26.6-20,59.9-13.3,73.2
				c13.3,6.7,39.9-26.6,59.9-39.9c6.7,0,6.7-6.7,13.3-6.7s13.3,6.7,13.3,13.3c6.7,20,13.3,66.5,26.6,66.5c13.3,0,0-66.5,0-99.8
				s0-66.5,6.7-99.8c6.7-26.6,20-46.6,33.3-73.2c13.3-20,20-39.9,20-66.5c6.7,6.7,13.3,6.7,13.3,13.3s0,20-6.7,39.9
				c-6.7,26.6-20,39.9-20,39.9c-26.6,39.9-26.6,93.2-26.6,113.1c0,59.9,20,66.5,13.3,113.1C1084.4,373.8,1064.4,407,1051.1,433.7z"
				/>
			<path class="st6" d="M964.6,160.8c-6.7,0-13.3,0-20,6.7c0,6.7,0,6.7,0,13.3c0,6.7,6.7,6.7,13.3,6.7c13.3,6.7,33.3,0,46.6-13.3
				s20-26.6,26.6-46.6v-6.7c0-6.7-13.3-6.7-13.3,0c-6.7,6.7-6.7,13.3-13.3,20C997.9,147.5,984.5,154.2,964.6,160.8z"/>
		</g>
	</g>
</g>
</svg>
